<mxfile host="app.diagrams.net" modified="2022-05-05T18:48:52.284Z" agent="5.0 (Windows NT 10.0; Win64; x64) AppleWebKit/537.36 (KHTML, like Gecko) Chrome/100.0.4896.147 Safari/537.36" etag="zx1dJiLwjMB93m5niDqQ" version="18.0.1" type="github">
  <diagram name="ER" id="e56a1550-8fbb-45ad-956c-1786394a9013">
    <mxGraphModel dx="1787" dy="772" grid="0" gridSize="10" guides="1" tooltips="1" connect="1" arrows="1" fold="1" page="0" pageScale="1" pageWidth="850" pageHeight="1100" background="#808080" math="0" shadow="0">
      <root>
        <mxCell id="0" />
        <mxCell id="1" parent="0" />
        <mxCell id="2e49270ec7c68f3f-8" value="Files" style="shape=table;startSize=26;container=1;collapsible=1;childLayout=tableLayout;fontSize=14;fontFamily=Verdana;fillColor=#fad7ac;strokeColor=default;fontStyle=0;swimlaneFillColor=#ffffff;shadow=0;comic=0;labelBackgroundColor=none;strokeWidth=1;rounded=1;columnLines=0;rowLines=0;swimlaneLine=0;sketch=0;fixedRows=0;resizeLast=0;resizeLastRow=0;swimlaneHead=0;swimlaneBody=0;top=1;bottom=1;left=1;right=1;" parent="1" vertex="1">
          <mxGeometry x="-63" y="459" width="282" height="222" as="geometry" />
        </mxCell>
        <mxCell id="2e49270ec7c68f3f-9" value="Id" style="shape=partialRectangle;top=0;left=0;right=0;bottom=1;html=1;align=left;verticalAlign=middle;fillColor=none;spacingLeft=34;spacingRight=4;whiteSpace=wrap;overflow=hidden;rotatable=0;points=[[0,0.5],[1,0.5]];portConstraint=eastwest;dropTarget=0;fontStyle=5;strokeColor=#909090;fontColor=#1A1A1A;rounded=1;" parent="2e49270ec7c68f3f-8" vertex="1">
          <mxGeometry y="26" width="282" height="30" as="geometry" />
        </mxCell>
        <mxCell id="2e49270ec7c68f3f-10" value="PK" style="shape=partialRectangle;top=0;left=0;bottom=0;html=1;fillColor=none;align=left;verticalAlign=middle;spacingLeft=4;spacingRight=4;whiteSpace=wrap;overflow=hidden;rotatable=0;points=[];portConstraint=eastwest;part=1;strokeColor=#909090;fontColor=#1A1A1A;rounded=1;" parent="2e49270ec7c68f3f-9" vertex="1" connectable="0">
          <mxGeometry width="114" height="30" as="geometry">
            <mxRectangle width="114" height="30" as="alternateBounds" />
          </mxGeometry>
        </mxCell>
        <mxCell id="YrgYbaN7kOxB59Jyv08Y-6" value="int" style="shape=partialRectangle;top=0;left=0;bottom=0;html=1;fillColor=none;align=left;verticalAlign=middle;spacingLeft=4;spacingRight=4;whiteSpace=wrap;overflow=hidden;rotatable=0;points=[];portConstraint=eastwest;part=1;strokeColor=#909090;fontColor=#1A1A1A;rounded=1;right=0;" parent="2e49270ec7c68f3f-9" vertex="1" connectable="0">
          <mxGeometry x="114" width="113" height="30" as="geometry">
            <mxRectangle width="113" height="30" as="alternateBounds" />
          </mxGeometry>
        </mxCell>
        <mxCell id="YrgYbaN7kOxB59Jyv08Y-28" value="not null" style="shape=partialRectangle;top=0;left=0;bottom=0;html=1;fillColor=none;align=left;verticalAlign=middle;spacingLeft=4;spacingRight=4;whiteSpace=wrap;overflow=hidden;rotatable=0;points=[];portConstraint=eastwest;part=1;strokeColor=#909090;fontColor=#808080;rounded=1;right=0;" parent="2e49270ec7c68f3f-9" vertex="1" connectable="0">
          <mxGeometry x="227" width="55" height="30" as="geometry">
            <mxRectangle width="55" height="30" as="alternateBounds" />
          </mxGeometry>
        </mxCell>
        <mxCell id="2e49270ec7c68f3f-15" value="Process_id" style="shape=partialRectangle;top=0;left=0;right=0;bottom=0;html=1;align=left;verticalAlign=middle;fillColor=none;spacingLeft=34;spacingRight=4;whiteSpace=wrap;overflow=hidden;rotatable=0;points=[[0,0.5],[1,0.5]];portConstraint=eastwest;dropTarget=0;strokeColor=#909090;fontColor=#1A1A1A;rounded=1;fontStyle=5;" parent="2e49270ec7c68f3f-8" vertex="1">
          <mxGeometry y="56" width="282" height="26" as="geometry" />
        </mxCell>
        <mxCell id="2e49270ec7c68f3f-16" value="FK1" style="shape=partialRectangle;top=0;left=0;bottom=0;html=1;fillColor=none;align=left;verticalAlign=top;spacingLeft=4;spacingRight=4;whiteSpace=wrap;overflow=hidden;rotatable=0;points=[];portConstraint=eastwest;part=1;strokeColor=#909090;fontColor=#1A1A1A;rounded=1;" parent="2e49270ec7c68f3f-15" vertex="1" connectable="0">
          <mxGeometry width="114" height="26" as="geometry">
            <mxRectangle width="114" height="26" as="alternateBounds" />
          </mxGeometry>
        </mxCell>
        <mxCell id="YrgYbaN7kOxB59Jyv08Y-7" value="int" style="shape=partialRectangle;top=0;left=0;bottom=0;html=1;fillColor=none;align=left;verticalAlign=top;spacingLeft=4;spacingRight=4;whiteSpace=wrap;overflow=hidden;rotatable=0;points=[];portConstraint=eastwest;part=1;strokeColor=#909090;fontColor=#1A1A1A;rounded=1;right=0;" parent="2e49270ec7c68f3f-15" vertex="1" connectable="0">
          <mxGeometry x="114" width="113" height="26" as="geometry">
            <mxRectangle width="113" height="26" as="alternateBounds" />
          </mxGeometry>
        </mxCell>
        <mxCell id="YrgYbaN7kOxB59Jyv08Y-29" value="&lt;span style=&quot;&quot;&gt;not null&lt;/span&gt;" style="shape=partialRectangle;top=0;left=0;bottom=0;html=1;fillColor=none;align=left;verticalAlign=top;spacingLeft=4;spacingRight=4;whiteSpace=wrap;overflow=hidden;rotatable=0;points=[];portConstraint=eastwest;part=1;strokeColor=#909090;fontColor=#808080;rounded=1;right=0;" parent="2e49270ec7c68f3f-15" vertex="1" connectable="0">
          <mxGeometry x="227" width="55" height="26" as="geometry">
            <mxRectangle width="55" height="26" as="alternateBounds" />
          </mxGeometry>
        </mxCell>
        <mxCell id="2e49270ec7c68f3f-11" value="Category_id" style="shape=partialRectangle;top=0;left=0;right=0;bottom=0;html=1;align=left;verticalAlign=middle;fillColor=none;spacingLeft=34;spacingRight=4;whiteSpace=wrap;overflow=hidden;rotatable=0;points=[[0,0.5],[1,0.5]];portConstraint=eastwest;dropTarget=0;strokeColor=#909090;fontColor=#1A1A1A;rounded=1;fontStyle=5;" parent="2e49270ec7c68f3f-8" vertex="1">
          <mxGeometry y="82" width="282" height="26" as="geometry" />
        </mxCell>
        <mxCell id="2e49270ec7c68f3f-12" value="&lt;font style=&quot;font-size: 11px;&quot;&gt;FK2&lt;/font&gt;" style="shape=partialRectangle;top=0;left=0;bottom=0;html=1;fillColor=none;align=left;verticalAlign=top;spacingLeft=4;spacingRight=4;whiteSpace=wrap;overflow=hidden;rotatable=0;points=[];portConstraint=eastwest;part=1;strokeColor=#909090;fontColor=#1A1A1A;rounded=1;" parent="2e49270ec7c68f3f-11" vertex="1" connectable="0">
          <mxGeometry width="114" height="26" as="geometry">
            <mxRectangle width="114" height="26" as="alternateBounds" />
          </mxGeometry>
        </mxCell>
        <mxCell id="YrgYbaN7kOxB59Jyv08Y-8" value="int" style="shape=partialRectangle;top=0;left=0;bottom=0;html=1;fillColor=none;align=left;verticalAlign=top;spacingLeft=4;spacingRight=4;whiteSpace=wrap;overflow=hidden;rotatable=0;points=[];portConstraint=eastwest;part=1;strokeColor=#909090;fontColor=#1A1A1A;rounded=1;right=0;" parent="2e49270ec7c68f3f-11" vertex="1" connectable="0">
          <mxGeometry x="114" width="113" height="26" as="geometry">
            <mxRectangle width="113" height="26" as="alternateBounds" />
          </mxGeometry>
        </mxCell>
        <mxCell id="YrgYbaN7kOxB59Jyv08Y-30" value="&lt;span style=&quot;&quot;&gt;not null&lt;/span&gt;" style="shape=partialRectangle;top=0;left=0;bottom=0;html=1;fillColor=none;align=left;verticalAlign=top;spacingLeft=4;spacingRight=4;whiteSpace=wrap;overflow=hidden;rotatable=0;points=[];portConstraint=eastwest;part=1;strokeColor=#909090;fontColor=#808080;rounded=1;right=0;" parent="2e49270ec7c68f3f-11" vertex="1" connectable="0">
          <mxGeometry x="227" width="55" height="26" as="geometry">
            <mxRectangle width="55" height="26" as="alternateBounds" />
          </mxGeometry>
        </mxCell>
        <mxCell id="vIAqwBNC-OFcZ53PO1-U-49" value="Entity_name" style="shape=partialRectangle;top=0;left=0;right=0;bottom=0;html=1;align=left;verticalAlign=top;fillColor=none;spacingLeft=34;spacingRight=4;whiteSpace=wrap;overflow=hidden;rotatable=0;points=[[0,0.5],[1,0.5]];portConstraint=eastwest;dropTarget=0;strokeColor=#909090;fontColor=#1A1A1A;rounded=1;" parent="2e49270ec7c68f3f-8" vertex="1">
          <mxGeometry y="108" width="282" height="26" as="geometry" />
        </mxCell>
        <mxCell id="vIAqwBNC-OFcZ53PO1-U-50" value="" style="shape=partialRectangle;top=0;left=0;bottom=0;html=1;fillColor=none;align=left;verticalAlign=top;spacingLeft=4;spacingRight=4;whiteSpace=wrap;overflow=hidden;rotatable=0;points=[];portConstraint=eastwest;part=1;strokeColor=#909090;fontColor=#1A1A1A;rounded=1;" parent="vIAqwBNC-OFcZ53PO1-U-49" vertex="1" connectable="0">
          <mxGeometry width="114" height="26" as="geometry">
            <mxRectangle width="114" height="26" as="alternateBounds" />
          </mxGeometry>
        </mxCell>
        <mxCell id="YrgYbaN7kOxB59Jyv08Y-9" value="nvarchar(max)" style="shape=partialRectangle;top=0;left=0;bottom=0;html=1;fillColor=none;align=left;verticalAlign=top;spacingLeft=4;spacingRight=4;whiteSpace=wrap;overflow=hidden;rotatable=0;points=[];portConstraint=eastwest;part=1;strokeColor=#909090;fontColor=#1A1A1A;rounded=1;right=0;" parent="vIAqwBNC-OFcZ53PO1-U-49" vertex="1" connectable="0">
          <mxGeometry x="114" width="113" height="26" as="geometry">
            <mxRectangle width="113" height="26" as="alternateBounds" />
          </mxGeometry>
        </mxCell>
        <mxCell id="YrgYbaN7kOxB59Jyv08Y-31" value="&lt;span style=&quot;&quot;&gt;not null&lt;/span&gt;" style="shape=partialRectangle;top=0;left=0;bottom=0;html=1;fillColor=none;align=left;verticalAlign=top;spacingLeft=4;spacingRight=4;whiteSpace=wrap;overflow=hidden;rotatable=0;points=[];portConstraint=eastwest;part=1;strokeColor=#909090;fontColor=#808080;rounded=1;right=0;" parent="vIAqwBNC-OFcZ53PO1-U-49" vertex="1" connectable="0">
          <mxGeometry x="227" width="55" height="26" as="geometry">
            <mxRectangle width="55" height="26" as="alternateBounds" />
          </mxGeometry>
        </mxCell>
        <mxCell id="vIAqwBNC-OFcZ53PO1-U-4" value="Name" style="shape=partialRectangle;top=0;left=0;right=0;bottom=0;html=1;align=left;verticalAlign=top;fillColor=none;spacingLeft=34;spacingRight=4;whiteSpace=wrap;overflow=hidden;rotatable=0;points=[[0,0.5],[1,0.5]];portConstraint=eastwest;dropTarget=0;strokeColor=#909090;fontColor=#1A1A1A;rounded=1;" parent="2e49270ec7c68f3f-8" vertex="1">
          <mxGeometry y="134" width="282" height="26" as="geometry" />
        </mxCell>
        <mxCell id="vIAqwBNC-OFcZ53PO1-U-5" value="" style="shape=partialRectangle;top=0;left=0;bottom=0;html=1;fillColor=none;align=left;verticalAlign=top;spacingLeft=4;spacingRight=4;whiteSpace=wrap;overflow=hidden;rotatable=0;points=[];portConstraint=eastwest;part=1;strokeColor=#909090;fontColor=#1A1A1A;rounded=1;" parent="vIAqwBNC-OFcZ53PO1-U-4" vertex="1" connectable="0">
          <mxGeometry width="114" height="26" as="geometry">
            <mxRectangle width="114" height="26" as="alternateBounds" />
          </mxGeometry>
        </mxCell>
        <mxCell id="YrgYbaN7kOxB59Jyv08Y-10" value="nvarchar(max)" style="shape=partialRectangle;top=0;left=0;bottom=0;html=1;fillColor=none;align=left;verticalAlign=top;spacingLeft=4;spacingRight=4;whiteSpace=wrap;overflow=hidden;rotatable=0;points=[];portConstraint=eastwest;part=1;strokeColor=#909090;fontColor=#1A1A1A;rounded=1;right=0;" parent="vIAqwBNC-OFcZ53PO1-U-4" vertex="1" connectable="0">
          <mxGeometry x="114" width="113" height="26" as="geometry">
            <mxRectangle width="113" height="26" as="alternateBounds" />
          </mxGeometry>
        </mxCell>
        <mxCell id="YrgYbaN7kOxB59Jyv08Y-32" value="&lt;span style=&quot;&quot;&gt;null&lt;/span&gt;" style="shape=partialRectangle;top=0;left=0;bottom=0;html=1;fillColor=none;align=left;verticalAlign=top;spacingLeft=4;spacingRight=4;whiteSpace=wrap;overflow=hidden;rotatable=0;points=[];portConstraint=eastwest;part=1;strokeColor=#909090;fontColor=#808080;rounded=1;right=0;" parent="vIAqwBNC-OFcZ53PO1-U-4" vertex="1" connectable="0">
          <mxGeometry x="227" width="55" height="26" as="geometry">
            <mxRectangle width="55" height="26" as="alternateBounds" />
          </mxGeometry>
        </mxCell>
        <mxCell id="2e49270ec7c68f3f-13" value="Data" style="shape=partialRectangle;top=0;left=0;right=0;bottom=0;html=1;align=left;verticalAlign=top;fillColor=none;spacingLeft=34;spacingRight=4;whiteSpace=wrap;overflow=hidden;rotatable=0;points=[[0,0.5],[1,0.5]];portConstraint=eastwest;dropTarget=0;strokeColor=#909090;fontColor=#1A1A1A;rounded=1;" parent="2e49270ec7c68f3f-8" vertex="1">
          <mxGeometry y="160" width="282" height="26" as="geometry" />
        </mxCell>
        <mxCell id="2e49270ec7c68f3f-14" value="" style="shape=partialRectangle;top=0;left=0;bottom=0;html=1;fillColor=none;align=left;verticalAlign=top;spacingLeft=4;spacingRight=4;whiteSpace=wrap;overflow=hidden;rotatable=0;points=[];portConstraint=eastwest;part=1;strokeColor=#909090;fontColor=#1A1A1A;rounded=1;" parent="2e49270ec7c68f3f-13" vertex="1" connectable="0">
          <mxGeometry width="114" height="26" as="geometry">
            <mxRectangle width="114" height="26" as="alternateBounds" />
          </mxGeometry>
        </mxCell>
        <mxCell id="YrgYbaN7kOxB59Jyv08Y-11" value="varbinary(max)" style="shape=partialRectangle;top=0;left=0;bottom=0;html=1;fillColor=none;align=left;verticalAlign=top;spacingLeft=4;spacingRight=4;whiteSpace=wrap;overflow=hidden;rotatable=0;points=[];portConstraint=eastwest;part=1;strokeColor=#909090;fontColor=#1A1A1A;rounded=1;right=0;" parent="2e49270ec7c68f3f-13" vertex="1" connectable="0">
          <mxGeometry x="114" width="113" height="26" as="geometry">
            <mxRectangle width="113" height="26" as="alternateBounds" />
          </mxGeometry>
        </mxCell>
        <mxCell id="YrgYbaN7kOxB59Jyv08Y-33" value="null" style="shape=partialRectangle;top=0;left=0;bottom=0;html=1;fillColor=none;align=left;verticalAlign=top;spacingLeft=4;spacingRight=4;whiteSpace=wrap;overflow=hidden;rotatable=0;points=[];portConstraint=eastwest;part=1;strokeColor=#909090;fontColor=#808080;rounded=1;right=0;" parent="2e49270ec7c68f3f-13" vertex="1" connectable="0">
          <mxGeometry x="227" width="55" height="26" as="geometry">
            <mxRectangle width="55" height="26" as="alternateBounds" />
          </mxGeometry>
        </mxCell>
        <mxCell id="vIAqwBNC-OFcZ53PO1-U-6" value="Type" style="shape=partialRectangle;top=0;left=0;right=0;bottom=0;html=1;align=left;verticalAlign=top;fillColor=none;spacingLeft=34;spacingRight=4;whiteSpace=wrap;overflow=hidden;rotatable=0;points=[[0,0.5],[1,0.5]];portConstraint=eastwest;dropTarget=0;strokeColor=#909090;fontColor=#1A1A1A;rounded=1;" parent="2e49270ec7c68f3f-8" vertex="1">
          <mxGeometry y="186" width="282" height="26" as="geometry" />
        </mxCell>
        <mxCell id="vIAqwBNC-OFcZ53PO1-U-7" value="" style="shape=partialRectangle;top=0;left=0;bottom=0;html=1;fillColor=none;align=left;verticalAlign=top;spacingLeft=4;spacingRight=4;whiteSpace=wrap;overflow=hidden;rotatable=0;points=[];portConstraint=eastwest;part=1;strokeColor=#909090;fontColor=#1A1A1A;rounded=1;" parent="vIAqwBNC-OFcZ53PO1-U-6" vertex="1" connectable="0">
          <mxGeometry width="114" height="26" as="geometry">
            <mxRectangle width="114" height="26" as="alternateBounds" />
          </mxGeometry>
        </mxCell>
        <mxCell id="YrgYbaN7kOxB59Jyv08Y-12" value="nvarchar(max)" style="shape=partialRectangle;top=0;left=0;bottom=0;html=1;fillColor=none;align=left;verticalAlign=top;spacingLeft=4;spacingRight=4;whiteSpace=wrap;overflow=hidden;rotatable=0;points=[];portConstraint=eastwest;part=1;strokeColor=#909090;fontColor=#1A1A1A;rounded=1;right=0;" parent="vIAqwBNC-OFcZ53PO1-U-6" vertex="1" connectable="0">
          <mxGeometry x="114" width="113" height="26" as="geometry">
            <mxRectangle width="113" height="26" as="alternateBounds" />
          </mxGeometry>
        </mxCell>
        <mxCell id="YrgYbaN7kOxB59Jyv08Y-34" value="&lt;span style=&quot;&quot;&gt;null&lt;/span&gt;" style="shape=partialRectangle;top=0;left=0;bottom=0;html=1;fillColor=none;align=left;verticalAlign=top;spacingLeft=4;spacingRight=4;whiteSpace=wrap;overflow=hidden;rotatable=0;points=[];portConstraint=eastwest;part=1;strokeColor=#909090;fontColor=#808080;rounded=1;right=0;" parent="vIAqwBNC-OFcZ53PO1-U-6" vertex="1" connectable="0">
          <mxGeometry x="227" width="55" height="26" as="geometry">
            <mxRectangle width="55" height="26" as="alternateBounds" />
          </mxGeometry>
        </mxCell>
        <mxCell id="2e49270ec7c68f3f-17" value="" style="shape=partialRectangle;top=0;left=0;right=0;bottom=0;html=1;align=left;verticalAlign=top;fillColor=none;spacingLeft=34;spacingRight=4;whiteSpace=wrap;overflow=hidden;rotatable=0;points=[[0,0.5],[1,0.5]];portConstraint=eastwest;dropTarget=0;strokeColor=#909090;fontColor=#1A1A1A;rounded=1;" parent="2e49270ec7c68f3f-8" vertex="1">
          <mxGeometry y="212" width="282" height="10" as="geometry" />
        </mxCell>
        <mxCell id="2e49270ec7c68f3f-18" value="" style="shape=partialRectangle;top=0;left=0;bottom=0;html=1;fillColor=none;align=left;verticalAlign=top;spacingLeft=4;spacingRight=4;whiteSpace=wrap;overflow=hidden;rotatable=0;points=[];portConstraint=eastwest;part=1;strokeColor=#909090;fontColor=#1A1A1A;rounded=1;" parent="2e49270ec7c68f3f-17" vertex="1" connectable="0">
          <mxGeometry width="114" height="10" as="geometry">
            <mxRectangle width="114" height="10" as="alternateBounds" />
          </mxGeometry>
        </mxCell>
        <mxCell id="YrgYbaN7kOxB59Jyv08Y-13" style="shape=partialRectangle;top=0;left=0;bottom=0;html=1;fillColor=none;align=left;verticalAlign=top;spacingLeft=4;spacingRight=4;whiteSpace=wrap;overflow=hidden;rotatable=0;points=[];portConstraint=eastwest;part=1;strokeColor=#909090;fontColor=#1A1A1A;rounded=1;right=0;" parent="2e49270ec7c68f3f-17" vertex="1" connectable="0">
          <mxGeometry x="114" width="113" height="10" as="geometry">
            <mxRectangle width="113" height="10" as="alternateBounds" />
          </mxGeometry>
        </mxCell>
        <mxCell id="YrgYbaN7kOxB59Jyv08Y-35" style="shape=partialRectangle;top=0;left=0;bottom=0;html=1;fillColor=none;align=left;verticalAlign=top;spacingLeft=4;spacingRight=4;whiteSpace=wrap;overflow=hidden;rotatable=0;points=[];portConstraint=eastwest;part=1;strokeColor=#909090;fontColor=#1A1A1A;rounded=1;" parent="2e49270ec7c68f3f-17" vertex="1" connectable="0">
          <mxGeometry x="227" width="55" height="10" as="geometry">
            <mxRectangle width="55" height="10" as="alternateBounds" />
          </mxGeometry>
        </mxCell>
        <mxCell id="2e49270ec7c68f3f-19" value="Category" style="shape=table;startSize=26;container=1;collapsible=1;childLayout=tableLayout;fontSize=14;fontFamily=Verdana;fillColor=#b1ddf0;strokeColor=#10739e;fontStyle=0;swimlaneFillColor=#ffffff;shadow=0;comic=0;labelBackgroundColor=none;strokeWidth=1;rounded=1;columnLines=0;rowLines=0;swimlaneLine=0;sketch=0;fixedRows=0;resizeLast=0;resizeLastRow=0;swimlaneHead=0;swimlaneBody=0;top=1;bottom=1;left=1;right=1;" parent="1" vertex="1">
          <mxGeometry x="561" y="990" width="258" height="99" as="geometry" />
        </mxCell>
        <mxCell id="2e49270ec7c68f3f-20" value="Id" style="shape=partialRectangle;top=0;left=0;right=0;bottom=1;html=1;align=left;verticalAlign=middle;fillColor=none;spacingLeft=34;spacingRight=4;whiteSpace=wrap;overflow=hidden;rotatable=0;points=[[0,0.5],[1,0.5]];portConstraint=eastwest;dropTarget=0;fontStyle=5;strokeColor=#909090;fontColor=#1A1A1A;rounded=1;" parent="2e49270ec7c68f3f-19" vertex="1">
          <mxGeometry y="26" width="258" height="32" as="geometry" />
        </mxCell>
        <mxCell id="2e49270ec7c68f3f-21" value="PK" style="shape=partialRectangle;top=0;left=0;bottom=0;html=1;fillColor=none;align=left;verticalAlign=middle;spacingLeft=4;spacingRight=4;whiteSpace=wrap;overflow=hidden;rotatable=0;points=[];portConstraint=eastwest;part=1;strokeColor=#909090;fontColor=#1A1A1A;rounded=1;" parent="2e49270ec7c68f3f-20" vertex="1" connectable="0">
          <mxGeometry width="90" height="32" as="geometry">
            <mxRectangle width="90" height="32" as="alternateBounds" />
          </mxGeometry>
        </mxCell>
        <mxCell id="YrgYbaN7kOxB59Jyv08Y-38" value="int&amp;nbsp;" style="shape=partialRectangle;top=0;left=0;bottom=0;html=1;fillColor=none;align=left;verticalAlign=middle;spacingLeft=4;spacingRight=4;whiteSpace=wrap;overflow=hidden;rotatable=0;points=[];portConstraint=eastwest;part=1;strokeColor=#909090;fontColor=#1A1A1A;rounded=1;" parent="2e49270ec7c68f3f-20" vertex="1" connectable="0">
          <mxGeometry x="90" width="113" height="32" as="geometry">
            <mxRectangle width="113" height="32" as="alternateBounds" />
          </mxGeometry>
        </mxCell>
        <mxCell id="YrgYbaN7kOxB59Jyv08Y-41" value="&lt;span style=&quot;color: rgb(128, 128, 128); font-weight: 700;&quot;&gt;not null&lt;/span&gt;" style="shape=partialRectangle;top=0;left=0;bottom=0;html=1;fillColor=none;align=left;verticalAlign=middle;spacingLeft=4;spacingRight=4;whiteSpace=wrap;overflow=hidden;rotatable=0;points=[];portConstraint=eastwest;part=1;strokeColor=#909090;fontColor=#1A1A1A;rounded=1;" parent="2e49270ec7c68f3f-20" vertex="1" connectable="0">
          <mxGeometry x="203" width="55" height="32" as="geometry">
            <mxRectangle width="55" height="32" as="alternateBounds" />
          </mxGeometry>
        </mxCell>
        <mxCell id="2e49270ec7c68f3f-22" value="Name" style="shape=partialRectangle;top=0;left=0;right=0;bottom=0;html=1;align=left;verticalAlign=top;fillColor=none;spacingLeft=34;spacingRight=4;whiteSpace=wrap;overflow=hidden;rotatable=0;points=[[0,0.5],[1,0.5]];portConstraint=eastwest;dropTarget=0;strokeColor=#909090;fontColor=#1A1A1A;rounded=1;" parent="2e49270ec7c68f3f-19" vertex="1">
          <mxGeometry y="58" width="258" height="30" as="geometry" />
        </mxCell>
        <mxCell id="2e49270ec7c68f3f-23" value="" style="shape=partialRectangle;top=0;left=0;bottom=0;html=1;fillColor=none;align=left;verticalAlign=top;spacingLeft=4;spacingRight=4;whiteSpace=wrap;overflow=hidden;rotatable=0;points=[];portConstraint=eastwest;part=1;strokeColor=#909090;fontColor=#1A1A1A;rounded=1;" parent="2e49270ec7c68f3f-22" vertex="1" connectable="0">
          <mxGeometry width="90" height="30" as="geometry">
            <mxRectangle width="90" height="30" as="alternateBounds" />
          </mxGeometry>
        </mxCell>
        <mxCell id="YrgYbaN7kOxB59Jyv08Y-39" value="&#xa;&lt;span style=&quot;color: rgb(26, 26, 26); font-family: Helvetica; font-size: 12px; font-style: normal; font-variant-ligatures: normal; font-variant-caps: normal; font-weight: 400; letter-spacing: normal; orphans: 2; text-align: left; text-indent: 0px; text-transform: none; widows: 2; word-spacing: 0px; -webkit-text-stroke-width: 0px; background-color: rgb(255, 255, 255); text-decoration-thickness: initial; text-decoration-style: initial; text-decoration-color: initial; float: none; display: inline !important;&quot;&gt;nvarchar(max)&lt;/span&gt;&#xa;&#xa;" style="shape=partialRectangle;top=0;left=0;bottom=0;html=1;fillColor=none;align=left;verticalAlign=bottom;spacingLeft=4;spacingRight=4;whiteSpace=wrap;overflow=hidden;rotatable=0;points=[];portConstraint=eastwest;part=1;strokeColor=#909090;fontColor=#1A1A1A;rounded=1;" parent="2e49270ec7c68f3f-22" vertex="1" connectable="0">
          <mxGeometry x="90" width="113" height="30" as="geometry">
            <mxRectangle width="113" height="30" as="alternateBounds" />
          </mxGeometry>
        </mxCell>
        <mxCell id="YrgYbaN7kOxB59Jyv08Y-42" value="&lt;span style=&quot;color: rgb(128, 128, 128); font-weight: 700;&quot;&gt;not null&lt;/span&gt;" style="shape=partialRectangle;top=0;left=0;bottom=0;html=1;fillColor=none;align=left;verticalAlign=top;spacingLeft=4;spacingRight=4;whiteSpace=wrap;overflow=hidden;rotatable=0;points=[];portConstraint=eastwest;part=1;strokeColor=#909090;fontColor=#1A1A1A;rounded=1;" parent="2e49270ec7c68f3f-22" vertex="1" connectable="0">
          <mxGeometry x="203" width="55" height="30" as="geometry">
            <mxRectangle width="55" height="30" as="alternateBounds" />
          </mxGeometry>
        </mxCell>
        <mxCell id="2e49270ec7c68f3f-28" value="" style="shape=partialRectangle;top=0;left=0;right=0;bottom=0;html=1;align=left;verticalAlign=top;fillColor=none;spacingLeft=34;spacingRight=4;whiteSpace=wrap;overflow=hidden;rotatable=0;points=[[0,0.5],[1,0.5]];portConstraint=eastwest;dropTarget=0;strokeColor=#909090;fontColor=#1A1A1A;rounded=1;" parent="2e49270ec7c68f3f-19" vertex="1">
          <mxGeometry y="88" width="258" height="11" as="geometry" />
        </mxCell>
        <mxCell id="2e49270ec7c68f3f-29" value="" style="shape=partialRectangle;top=0;left=0;bottom=0;html=1;fillColor=none;align=left;verticalAlign=top;spacingLeft=4;spacingRight=4;whiteSpace=wrap;overflow=hidden;rotatable=0;points=[];portConstraint=eastwest;part=1;strokeColor=#909090;fontColor=#1A1A1A;rounded=1;" parent="2e49270ec7c68f3f-28" vertex="1" connectable="0">
          <mxGeometry width="90" height="11" as="geometry">
            <mxRectangle width="90" height="11" as="alternateBounds" />
          </mxGeometry>
        </mxCell>
        <mxCell id="YrgYbaN7kOxB59Jyv08Y-40" style="shape=partialRectangle;top=0;left=0;bottom=0;html=1;fillColor=none;align=left;verticalAlign=top;spacingLeft=4;spacingRight=4;whiteSpace=wrap;overflow=hidden;rotatable=0;points=[];portConstraint=eastwest;part=1;strokeColor=#909090;fontColor=#1A1A1A;rounded=1;" parent="2e49270ec7c68f3f-28" vertex="1" connectable="0">
          <mxGeometry x="90" width="113" height="11" as="geometry">
            <mxRectangle width="113" height="11" as="alternateBounds" />
          </mxGeometry>
        </mxCell>
        <mxCell id="YrgYbaN7kOxB59Jyv08Y-43" style="shape=partialRectangle;top=0;left=0;bottom=0;html=1;fillColor=none;align=left;verticalAlign=top;spacingLeft=4;spacingRight=4;whiteSpace=wrap;overflow=hidden;rotatable=0;points=[];portConstraint=eastwest;part=1;strokeColor=#909090;fontColor=#1A1A1A;rounded=1;" parent="2e49270ec7c68f3f-28" vertex="1" connectable="0">
          <mxGeometry x="203" width="55" height="11" as="geometry">
            <mxRectangle width="55" height="11" as="alternateBounds" />
          </mxGeometry>
        </mxCell>
        <mxCell id="2e49270ec7c68f3f-30" value="URL" style="shape=table;startSize=26;container=1;collapsible=1;childLayout=tableLayout;fontSize=14;fontFamily=Verdana;fillColor=#d5e8d4;strokeColor=#82b366;fontStyle=0;swimlaneFillColor=#ffffff;shadow=0;comic=0;labelBackgroundColor=none;strokeWidth=1;rounded=1;columnLines=0;rowLines=0;swimlaneLine=0;sketch=0;fixedRows=0;resizeLast=0;resizeLastRow=0;swimlaneHead=0;swimlaneBody=0;top=1;bottom=1;left=1;right=1;" parent="1" vertex="1">
          <mxGeometry x="378" y="92" width="295" height="248" as="geometry" />
        </mxCell>
        <mxCell id="2e49270ec7c68f3f-31" value="Id" style="shape=partialRectangle;top=0;left=0;right=0;bottom=1;html=1;align=left;verticalAlign=middle;fillColor=none;spacingLeft=34;spacingRight=4;whiteSpace=wrap;overflow=hidden;rotatable=0;points=[[0,0.5],[1,0.5]];portConstraint=eastwest;dropTarget=0;fontStyle=5;strokeColor=#909090;fontColor=#1A1A1A;rounded=1;" parent="2e49270ec7c68f3f-30" vertex="1">
          <mxGeometry y="26" width="295" height="30" as="geometry" />
        </mxCell>
        <mxCell id="2e49270ec7c68f3f-32" value="PK" style="shape=partialRectangle;top=0;left=0;bottom=0;html=1;fillColor=none;align=left;verticalAlign=middle;spacingLeft=4;spacingRight=4;whiteSpace=wrap;overflow=hidden;rotatable=0;points=[];portConstraint=eastwest;part=1;strokeColor=#909090;fontColor=#1A1A1A;rounded=1;" parent="2e49270ec7c68f3f-31" vertex="1" connectable="0">
          <mxGeometry width="140" height="30" as="geometry">
            <mxRectangle width="140" height="30" as="alternateBounds" />
          </mxGeometry>
        </mxCell>
        <mxCell id="YrgYbaN7kOxB59Jyv08Y-70" value="int" style="shape=partialRectangle;top=0;left=0;bottom=0;html=1;fillColor=none;align=left;verticalAlign=middle;spacingLeft=4;spacingRight=4;whiteSpace=wrap;overflow=hidden;rotatable=0;points=[];portConstraint=eastwest;part=1;strokeColor=#909090;fontColor=#1A1A1A;rounded=1;" parent="2e49270ec7c68f3f-31" vertex="1" connectable="0">
          <mxGeometry x="140" width="100" height="30" as="geometry">
            <mxRectangle width="100" height="30" as="alternateBounds" />
          </mxGeometry>
        </mxCell>
        <mxCell id="YrgYbaN7kOxB59Jyv08Y-94" value="&lt;span style=&quot;color: rgb(128, 128, 128);&quot;&gt;not null&lt;/span&gt;" style="shape=partialRectangle;top=0;left=0;bottom=0;html=1;fillColor=none;align=left;verticalAlign=middle;spacingLeft=4;spacingRight=4;whiteSpace=wrap;overflow=hidden;rotatable=0;points=[];portConstraint=eastwest;part=1;strokeColor=#909090;fontColor=#1A1A1A;rounded=1;" parent="2e49270ec7c68f3f-31" vertex="1" connectable="0">
          <mxGeometry x="240" width="55" height="30" as="geometry">
            <mxRectangle width="55" height="30" as="alternateBounds" />
          </mxGeometry>
        </mxCell>
        <mxCell id="vIAqwBNC-OFcZ53PO1-U-19" value="File_id" style="shape=partialRectangle;top=0;left=0;right=0;bottom=0;html=1;align=left;verticalAlign=middle;fillColor=none;spacingLeft=34;spacingRight=4;whiteSpace=wrap;overflow=hidden;rotatable=0;points=[[0,0.5],[1,0.5]];portConstraint=eastwest;dropTarget=0;strokeColor=#909090;fontColor=#1A1A1A;rounded=1;fontStyle=5;" parent="2e49270ec7c68f3f-30" vertex="1">
          <mxGeometry y="56" width="295" height="26" as="geometry" />
        </mxCell>
        <mxCell id="vIAqwBNC-OFcZ53PO1-U-20" value="FK1" style="shape=partialRectangle;top=0;left=0;bottom=0;html=1;fillColor=none;align=left;verticalAlign=top;spacingLeft=4;spacingRight=4;whiteSpace=wrap;overflow=hidden;rotatable=0;points=[];portConstraint=eastwest;part=1;strokeColor=#909090;fontColor=#1A1A1A;rounded=1;" parent="vIAqwBNC-OFcZ53PO1-U-19" vertex="1" connectable="0">
          <mxGeometry width="140" height="26" as="geometry">
            <mxRectangle width="140" height="26" as="alternateBounds" />
          </mxGeometry>
        </mxCell>
        <mxCell id="YrgYbaN7kOxB59Jyv08Y-71" value="int" style="shape=partialRectangle;top=0;left=0;bottom=0;html=1;fillColor=none;align=left;verticalAlign=top;spacingLeft=4;spacingRight=4;whiteSpace=wrap;overflow=hidden;rotatable=0;points=[];portConstraint=eastwest;part=1;strokeColor=#909090;fontColor=#1A1A1A;rounded=1;" parent="vIAqwBNC-OFcZ53PO1-U-19" vertex="1" connectable="0">
          <mxGeometry x="140" width="100" height="26" as="geometry">
            <mxRectangle width="100" height="26" as="alternateBounds" />
          </mxGeometry>
        </mxCell>
        <mxCell id="YrgYbaN7kOxB59Jyv08Y-95" value="&lt;span style=&quot;color: rgb(128, 128, 128);&quot;&gt;not null&lt;/span&gt;" style="shape=partialRectangle;top=0;left=0;bottom=0;html=1;fillColor=none;align=left;verticalAlign=top;spacingLeft=4;spacingRight=4;whiteSpace=wrap;overflow=hidden;rotatable=0;points=[];portConstraint=eastwest;part=1;strokeColor=#909090;fontColor=#1A1A1A;rounded=1;" parent="vIAqwBNC-OFcZ53PO1-U-19" vertex="1" connectable="0">
          <mxGeometry x="240" width="55" height="26" as="geometry">
            <mxRectangle width="55" height="26" as="alternateBounds" />
          </mxGeometry>
        </mxCell>
        <mxCell id="vIAqwBNC-OFcZ53PO1-U-15" value="Status_id" style="shape=partialRectangle;top=0;left=0;right=0;bottom=0;html=1;align=left;verticalAlign=middle;fillColor=none;spacingLeft=34;spacingRight=4;whiteSpace=wrap;overflow=hidden;rotatable=0;points=[[0,0.5],[1,0.5]];portConstraint=eastwest;dropTarget=0;strokeColor=#909090;fontColor=#1A1A1A;rounded=1;fontStyle=5;" parent="2e49270ec7c68f3f-30" vertex="1">
          <mxGeometry y="82" width="295" height="26" as="geometry" />
        </mxCell>
        <mxCell id="vIAqwBNC-OFcZ53PO1-U-16" value="FK2" style="shape=partialRectangle;top=0;left=0;bottom=0;html=1;fillColor=none;align=left;verticalAlign=top;spacingLeft=4;spacingRight=4;whiteSpace=wrap;overflow=hidden;rotatable=0;points=[];portConstraint=eastwest;part=1;strokeColor=#909090;fontColor=#1A1A1A;rounded=1;" parent="vIAqwBNC-OFcZ53PO1-U-15" vertex="1" connectable="0">
          <mxGeometry width="140" height="26" as="geometry">
            <mxRectangle width="140" height="26" as="alternateBounds" />
          </mxGeometry>
        </mxCell>
        <mxCell id="YrgYbaN7kOxB59Jyv08Y-72" value="int" style="shape=partialRectangle;top=0;left=0;bottom=0;html=1;fillColor=none;align=left;verticalAlign=top;spacingLeft=4;spacingRight=4;whiteSpace=wrap;overflow=hidden;rotatable=0;points=[];portConstraint=eastwest;part=1;strokeColor=#909090;fontColor=#1A1A1A;rounded=1;" parent="vIAqwBNC-OFcZ53PO1-U-15" vertex="1" connectable="0">
          <mxGeometry x="140" width="100" height="26" as="geometry">
            <mxRectangle width="100" height="26" as="alternateBounds" />
          </mxGeometry>
        </mxCell>
        <mxCell id="YrgYbaN7kOxB59Jyv08Y-96" value="&lt;span style=&quot;color: rgb(128, 128, 128);&quot;&gt;not null&lt;/span&gt;" style="shape=partialRectangle;top=0;left=0;bottom=0;html=1;fillColor=none;align=left;verticalAlign=top;spacingLeft=4;spacingRight=4;whiteSpace=wrap;overflow=hidden;rotatable=0;points=[];portConstraint=eastwest;part=1;strokeColor=#909090;fontColor=#1A1A1A;rounded=1;" parent="vIAqwBNC-OFcZ53PO1-U-15" vertex="1" connectable="0">
          <mxGeometry x="240" width="55" height="26" as="geometry">
            <mxRectangle width="55" height="26" as="alternateBounds" />
          </mxGeometry>
        </mxCell>
        <mxCell id="2e49270ec7c68f3f-33" value="Address" style="shape=partialRectangle;top=0;left=0;right=0;bottom=0;html=1;align=left;verticalAlign=top;fillColor=none;spacingLeft=34;spacingRight=4;whiteSpace=wrap;overflow=hidden;rotatable=0;points=[[0,0.5],[1,0.5]];portConstraint=eastwest;dropTarget=0;strokeColor=#909090;fontColor=#1A1A1A;rounded=1;" parent="2e49270ec7c68f3f-30" vertex="1">
          <mxGeometry y="108" width="295" height="26" as="geometry" />
        </mxCell>
        <mxCell id="2e49270ec7c68f3f-34" value="" style="shape=partialRectangle;top=0;left=0;bottom=0;html=1;fillColor=none;align=left;verticalAlign=top;spacingLeft=4;spacingRight=4;whiteSpace=wrap;overflow=hidden;rotatable=0;points=[];portConstraint=eastwest;part=1;strokeColor=#909090;fontColor=#1A1A1A;rounded=1;" parent="2e49270ec7c68f3f-33" vertex="1" connectable="0">
          <mxGeometry width="140" height="26" as="geometry">
            <mxRectangle width="140" height="26" as="alternateBounds" />
          </mxGeometry>
        </mxCell>
        <mxCell id="YrgYbaN7kOxB59Jyv08Y-73" value="&lt;span style=&quot;&quot;&gt;nvarchar(max)&lt;/span&gt;" style="shape=partialRectangle;top=0;left=0;bottom=0;html=1;fillColor=none;align=left;verticalAlign=top;spacingLeft=4;spacingRight=4;whiteSpace=wrap;overflow=hidden;rotatable=0;points=[];portConstraint=eastwest;part=1;strokeColor=#909090;fontColor=#1A1A1A;rounded=1;" parent="2e49270ec7c68f3f-33" vertex="1" connectable="0">
          <mxGeometry x="140" width="100" height="26" as="geometry">
            <mxRectangle width="100" height="26" as="alternateBounds" />
          </mxGeometry>
        </mxCell>
        <mxCell id="YrgYbaN7kOxB59Jyv08Y-97" value="&lt;span style=&quot;color: rgb(128, 128, 128);&quot;&gt;not null&lt;/span&gt;" style="shape=partialRectangle;top=0;left=0;bottom=0;html=1;fillColor=none;align=left;verticalAlign=top;spacingLeft=4;spacingRight=4;whiteSpace=wrap;overflow=hidden;rotatable=0;points=[];portConstraint=eastwest;part=1;strokeColor=#909090;fontColor=#1A1A1A;rounded=1;" parent="2e49270ec7c68f3f-33" vertex="1" connectable="0">
          <mxGeometry x="240" width="55" height="26" as="geometry">
            <mxRectangle width="55" height="26" as="alternateBounds" />
          </mxGeometry>
        </mxCell>
        <mxCell id="2e49270ec7c68f3f-35" value="User_Id" style="shape=partialRectangle;top=0;left=0;right=0;bottom=0;html=1;align=left;verticalAlign=top;fillColor=none;spacingLeft=34;spacingRight=4;whiteSpace=wrap;overflow=hidden;rotatable=0;points=[[0,0.5],[1,0.5]];portConstraint=eastwest;dropTarget=0;strokeColor=#909090;fontColor=#1A1A1A;rounded=1;" parent="2e49270ec7c68f3f-30" vertex="1">
          <mxGeometry y="134" width="295" height="26" as="geometry" />
        </mxCell>
        <mxCell id="2e49270ec7c68f3f-36" value="" style="shape=partialRectangle;top=0;left=0;bottom=0;html=1;fillColor=none;align=left;verticalAlign=top;spacingLeft=4;spacingRight=4;whiteSpace=wrap;overflow=hidden;rotatable=0;points=[];portConstraint=eastwest;part=1;strokeColor=#909090;fontColor=#1A1A1A;rounded=1;" parent="2e49270ec7c68f3f-35" vertex="1" connectable="0">
          <mxGeometry width="140" height="26" as="geometry">
            <mxRectangle width="140" height="26" as="alternateBounds" />
          </mxGeometry>
        </mxCell>
        <mxCell id="YrgYbaN7kOxB59Jyv08Y-74" value="int" style="shape=partialRectangle;top=0;left=0;bottom=0;html=1;fillColor=none;align=left;verticalAlign=top;spacingLeft=4;spacingRight=4;whiteSpace=wrap;overflow=hidden;rotatable=0;points=[];portConstraint=eastwest;part=1;strokeColor=#909090;fontColor=#1A1A1A;rounded=1;" parent="2e49270ec7c68f3f-35" vertex="1" connectable="0">
          <mxGeometry x="140" width="100" height="26" as="geometry">
            <mxRectangle width="100" height="26" as="alternateBounds" />
          </mxGeometry>
        </mxCell>
        <mxCell id="YrgYbaN7kOxB59Jyv08Y-98" value="&lt;span style=&quot;color: rgb(128, 128, 128);&quot;&gt;null&lt;/span&gt;" style="shape=partialRectangle;top=0;left=0;bottom=0;html=1;fillColor=none;align=left;verticalAlign=top;spacingLeft=4;spacingRight=4;whiteSpace=wrap;overflow=hidden;rotatable=0;points=[];portConstraint=eastwest;part=1;strokeColor=#909090;fontColor=#1A1A1A;rounded=1;" parent="2e49270ec7c68f3f-35" vertex="1" connectable="0">
          <mxGeometry x="240" width="55" height="26" as="geometry">
            <mxRectangle width="55" height="26" as="alternateBounds" />
          </mxGeometry>
        </mxCell>
        <mxCell id="2e49270ec7c68f3f-37" value="Creation_date" style="shape=partialRectangle;top=0;left=0;right=0;bottom=0;html=1;align=left;verticalAlign=top;fillColor=none;spacingLeft=34;spacingRight=4;whiteSpace=wrap;overflow=hidden;rotatable=0;points=[[0,0.5],[1,0.5]];portConstraint=eastwest;dropTarget=0;strokeColor=#909090;fontColor=#1A1A1A;rounded=1;" parent="2e49270ec7c68f3f-30" vertex="1">
          <mxGeometry y="160" width="295" height="26" as="geometry" />
        </mxCell>
        <mxCell id="2e49270ec7c68f3f-38" value="" style="shape=partialRectangle;top=0;left=0;bottom=0;html=1;fillColor=none;align=left;verticalAlign=top;spacingLeft=4;spacingRight=4;whiteSpace=wrap;overflow=hidden;rotatable=0;points=[];portConstraint=eastwest;part=1;strokeColor=#909090;fontColor=#1A1A1A;rounded=1;" parent="2e49270ec7c68f3f-37" vertex="1" connectable="0">
          <mxGeometry width="140" height="26" as="geometry">
            <mxRectangle width="140" height="26" as="alternateBounds" />
          </mxGeometry>
        </mxCell>
        <mxCell id="YrgYbaN7kOxB59Jyv08Y-75" value="&lt;span style=&quot;&quot;&gt;datetime2(7)&lt;/span&gt;" style="shape=partialRectangle;top=0;left=0;bottom=0;html=1;fillColor=none;align=left;verticalAlign=top;spacingLeft=4;spacingRight=4;whiteSpace=wrap;overflow=hidden;rotatable=0;points=[];portConstraint=eastwest;part=1;strokeColor=#909090;fontColor=#1A1A1A;rounded=1;" parent="2e49270ec7c68f3f-37" vertex="1" connectable="0">
          <mxGeometry x="140" width="100" height="26" as="geometry">
            <mxRectangle width="100" height="26" as="alternateBounds" />
          </mxGeometry>
        </mxCell>
        <mxCell id="YrgYbaN7kOxB59Jyv08Y-99" value="&lt;span style=&quot;color: rgb(128, 128, 128);&quot;&gt;null&lt;/span&gt;" style="shape=partialRectangle;top=0;left=0;bottom=0;html=1;fillColor=none;align=left;verticalAlign=top;spacingLeft=4;spacingRight=4;whiteSpace=wrap;overflow=hidden;rotatable=0;points=[];portConstraint=eastwest;part=1;strokeColor=#909090;fontColor=#1A1A1A;rounded=1;" parent="2e49270ec7c68f3f-37" vertex="1" connectable="0">
          <mxGeometry x="240" width="55" height="26" as="geometry">
            <mxRectangle width="55" height="26" as="alternateBounds" />
          </mxGeometry>
        </mxCell>
        <mxCell id="vIAqwBNC-OFcZ53PO1-U-13" value="Expiration_date" style="shape=partialRectangle;top=0;left=0;right=0;bottom=0;html=1;align=left;verticalAlign=top;fillColor=none;spacingLeft=34;spacingRight=4;whiteSpace=wrap;overflow=hidden;rotatable=0;points=[[0,0.5],[1,0.5]];portConstraint=eastwest;dropTarget=0;strokeColor=#909090;fontColor=#1A1A1A;rounded=1;" parent="2e49270ec7c68f3f-30" vertex="1">
          <mxGeometry y="186" width="295" height="26" as="geometry" />
        </mxCell>
        <mxCell id="vIAqwBNC-OFcZ53PO1-U-14" value="" style="shape=partialRectangle;top=0;left=0;bottom=0;html=1;fillColor=none;align=left;verticalAlign=top;spacingLeft=4;spacingRight=4;whiteSpace=wrap;overflow=hidden;rotatable=0;points=[];portConstraint=eastwest;part=1;strokeColor=#909090;fontColor=#1A1A1A;rounded=1;" parent="vIAqwBNC-OFcZ53PO1-U-13" vertex="1" connectable="0">
          <mxGeometry width="140" height="26" as="geometry">
            <mxRectangle width="140" height="26" as="alternateBounds" />
          </mxGeometry>
        </mxCell>
        <mxCell id="YrgYbaN7kOxB59Jyv08Y-76" value="&lt;span style=&quot;&quot;&gt;datetime2(7)&lt;/span&gt;" style="shape=partialRectangle;top=0;left=0;bottom=0;html=1;fillColor=none;align=left;verticalAlign=top;spacingLeft=4;spacingRight=4;whiteSpace=wrap;overflow=hidden;rotatable=0;points=[];portConstraint=eastwest;part=1;strokeColor=#909090;fontColor=#1A1A1A;rounded=1;" parent="vIAqwBNC-OFcZ53PO1-U-13" vertex="1" connectable="0">
          <mxGeometry x="140" width="100" height="26" as="geometry">
            <mxRectangle width="100" height="26" as="alternateBounds" />
          </mxGeometry>
        </mxCell>
        <mxCell id="YrgYbaN7kOxB59Jyv08Y-100" value="&lt;span style=&quot;color: rgb(128, 128, 128);&quot;&gt;null&lt;/span&gt;" style="shape=partialRectangle;top=0;left=0;bottom=0;html=1;fillColor=none;align=left;verticalAlign=top;spacingLeft=4;spacingRight=4;whiteSpace=wrap;overflow=hidden;rotatable=0;points=[];portConstraint=eastwest;part=1;strokeColor=#909090;fontColor=#1A1A1A;rounded=1;" parent="vIAqwBNC-OFcZ53PO1-U-13" vertex="1" connectable="0">
          <mxGeometry x="240" width="55" height="26" as="geometry">
            <mxRectangle width="55" height="26" as="alternateBounds" />
          </mxGeometry>
        </mxCell>
        <mxCell id="vIAqwBNC-OFcZ53PO1-U-17" value="Downloads" style="shape=partialRectangle;top=0;left=0;right=0;bottom=0;html=1;align=left;verticalAlign=top;fillColor=none;spacingLeft=34;spacingRight=4;whiteSpace=wrap;overflow=hidden;rotatable=0;points=[[0,0.5],[1,0.5]];portConstraint=eastwest;dropTarget=0;strokeColor=#909090;fontColor=#1A1A1A;rounded=1;" parent="2e49270ec7c68f3f-30" vertex="1">
          <mxGeometry y="212" width="295" height="26" as="geometry" />
        </mxCell>
        <mxCell id="vIAqwBNC-OFcZ53PO1-U-18" value="" style="shape=partialRectangle;top=0;left=0;bottom=0;html=1;fillColor=none;align=left;verticalAlign=top;spacingLeft=4;spacingRight=4;whiteSpace=wrap;overflow=hidden;rotatable=0;points=[];portConstraint=eastwest;part=1;strokeColor=#909090;fontColor=#1A1A1A;rounded=1;" parent="vIAqwBNC-OFcZ53PO1-U-17" vertex="1" connectable="0">
          <mxGeometry width="140" height="26" as="geometry">
            <mxRectangle width="140" height="26" as="alternateBounds" />
          </mxGeometry>
        </mxCell>
        <mxCell id="YrgYbaN7kOxB59Jyv08Y-77" value="int" style="shape=partialRectangle;top=0;left=0;bottom=0;html=1;fillColor=none;align=left;verticalAlign=top;spacingLeft=4;spacingRight=4;whiteSpace=wrap;overflow=hidden;rotatable=0;points=[];portConstraint=eastwest;part=1;strokeColor=#909090;fontColor=#1A1A1A;rounded=1;" parent="vIAqwBNC-OFcZ53PO1-U-17" vertex="1" connectable="0">
          <mxGeometry x="140" width="100" height="26" as="geometry">
            <mxRectangle width="100" height="26" as="alternateBounds" />
          </mxGeometry>
        </mxCell>
        <mxCell id="YrgYbaN7kOxB59Jyv08Y-101" value="&lt;span style=&quot;color: rgb(128, 128, 128);&quot;&gt;null&lt;/span&gt;" style="shape=partialRectangle;top=0;left=0;bottom=0;html=1;fillColor=none;align=left;verticalAlign=top;spacingLeft=4;spacingRight=4;whiteSpace=wrap;overflow=hidden;rotatable=0;points=[];portConstraint=eastwest;part=1;strokeColor=#909090;fontColor=#1A1A1A;rounded=1;" parent="vIAqwBNC-OFcZ53PO1-U-17" vertex="1" connectable="0">
          <mxGeometry x="240" width="55" height="26" as="geometry">
            <mxRectangle width="55" height="26" as="alternateBounds" />
          </mxGeometry>
        </mxCell>
        <mxCell id="2e49270ec7c68f3f-39" value="" style="shape=partialRectangle;top=0;left=0;right=0;bottom=0;html=1;align=left;verticalAlign=top;fillColor=none;spacingLeft=34;spacingRight=4;whiteSpace=wrap;overflow=hidden;rotatable=0;points=[[0,0.5],[1,0.5]];portConstraint=eastwest;dropTarget=0;strokeColor=#909090;fontColor=#1A1A1A;rounded=1;" parent="2e49270ec7c68f3f-30" vertex="1">
          <mxGeometry y="238" width="295" height="10" as="geometry" />
        </mxCell>
        <mxCell id="2e49270ec7c68f3f-40" value="" style="shape=partialRectangle;top=0;left=0;bottom=0;html=1;fillColor=none;align=left;verticalAlign=top;spacingLeft=4;spacingRight=4;whiteSpace=wrap;overflow=hidden;rotatable=0;points=[];portConstraint=eastwest;part=1;strokeColor=#909090;fontColor=#1A1A1A;rounded=1;" parent="2e49270ec7c68f3f-39" vertex="1" connectable="0">
          <mxGeometry width="140" height="10" as="geometry">
            <mxRectangle width="140" height="10" as="alternateBounds" />
          </mxGeometry>
        </mxCell>
        <mxCell id="YrgYbaN7kOxB59Jyv08Y-78" style="shape=partialRectangle;top=0;left=0;bottom=0;html=1;fillColor=none;align=left;verticalAlign=top;spacingLeft=4;spacingRight=4;whiteSpace=wrap;overflow=hidden;rotatable=0;points=[];portConstraint=eastwest;part=1;strokeColor=#909090;fontColor=#1A1A1A;rounded=1;" parent="2e49270ec7c68f3f-39" vertex="1" connectable="0">
          <mxGeometry x="140" width="100" height="10" as="geometry">
            <mxRectangle width="100" height="10" as="alternateBounds" />
          </mxGeometry>
        </mxCell>
        <mxCell id="YrgYbaN7kOxB59Jyv08Y-102" style="shape=partialRectangle;top=0;left=0;bottom=0;html=1;fillColor=none;align=left;verticalAlign=top;spacingLeft=4;spacingRight=4;whiteSpace=wrap;overflow=hidden;rotatable=0;points=[];portConstraint=eastwest;part=1;strokeColor=#909090;fontColor=#1A1A1A;rounded=1;" parent="2e49270ec7c68f3f-39" vertex="1" connectable="0">
          <mxGeometry x="240" width="55" height="10" as="geometry">
            <mxRectangle width="55" height="10" as="alternateBounds" />
          </mxGeometry>
        </mxCell>
        <mxCell id="2e49270ec7c68f3f-48" value="Process" style="shape=table;startSize=26;container=1;collapsible=1;childLayout=tableLayout;fontSize=14;fontFamily=Verdana;fillColor=#f8cecc;strokeColor=#b85450;fontStyle=0;swimlaneFillColor=#ffffff;shadow=0;comic=0;labelBackgroundColor=none;strokeWidth=1;rounded=1;columnLines=0;rowLines=0;swimlaneLine=0;sketch=0;fixedRows=0;resizeLast=0;resizeLastRow=0;swimlaneHead=0;swimlaneBody=0;top=1;bottom=1;left=1;right=1;" parent="1" vertex="1">
          <mxGeometry x="278" y="809" width="233" height="90" as="geometry" />
        </mxCell>
        <mxCell id="2e49270ec7c68f3f-49" value="Process_id" style="shape=partialRectangle;top=0;left=0;right=0;bottom=0;html=1;align=left;verticalAlign=middle;fillColor=none;spacingLeft=60;spacingRight=4;whiteSpace=wrap;overflow=hidden;rotatable=0;points=[[0,0.5],[1,0.5]];portConstraint=eastwest;dropTarget=0;fontStyle=5;strokeColor=#909090;fontColor=#1A1A1A;rounded=1;" parent="2e49270ec7c68f3f-48" vertex="1">
          <mxGeometry y="26" width="233" height="34" as="geometry" />
        </mxCell>
        <mxCell id="2e49270ec7c68f3f-50" value="PK,FK1" style="shape=partialRectangle;fontStyle=1;top=0;left=0;bottom=0;fillColor=none;align=left;verticalAlign=middle;spacingLeft=4;spacingRight=4;overflow=hidden;rotatable=0;points=[];portConstraint=eastwest;part=0;strokeColor=#909090;fontColor=#1A1A1A;rounded=1;whiteSpace=wrap;html=1;connectable=0;allowArrows=1;recursiveResize=0;expand=0;" parent="2e49270ec7c68f3f-49" vertex="1" connectable="0">
          <mxGeometry width="138" height="34" as="geometry">
            <mxRectangle width="138" height="34" as="alternateBounds" />
          </mxGeometry>
        </mxCell>
        <mxCell id="YrgYbaN7kOxB59Jyv08Y-26" value="int" style="shape=partialRectangle;fontStyle=1;top=0;left=0;bottom=0;html=1;fillColor=none;align=left;verticalAlign=middle;spacingLeft=4;spacingRight=4;whiteSpace=wrap;overflow=hidden;rotatable=0;points=[];portConstraint=eastwest;part=1;strokeColor=#909090;fontColor=#1A1A1A;rounded=1;" parent="2e49270ec7c68f3f-49" vertex="1" connectable="0">
          <mxGeometry x="138" width="40" height="34" as="geometry">
            <mxRectangle width="40" height="34" as="alternateBounds" />
          </mxGeometry>
        </mxCell>
        <mxCell id="YrgYbaN7kOxB59Jyv08Y-36" value="not null" style="shape=partialRectangle;fontStyle=1;top=0;left=0;bottom=0;html=1;fillColor=none;align=left;verticalAlign=middle;spacingLeft=4;spacingRight=4;whiteSpace=wrap;overflow=hidden;rotatable=0;points=[];portConstraint=eastwest;part=1;strokeColor=#909090;fontColor=#808080;rounded=1;" parent="2e49270ec7c68f3f-49" vertex="1" connectable="0">
          <mxGeometry x="178" width="55" height="34" as="geometry">
            <mxRectangle width="55" height="34" as="alternateBounds" />
          </mxGeometry>
        </mxCell>
        <mxCell id="2e49270ec7c68f3f-51" value="Category_id" style="shape=partialRectangle;top=0;left=0;right=0;bottom=1;html=1;align=left;verticalAlign=middle;fillColor=none;spacingLeft=60;spacingRight=4;whiteSpace=wrap;overflow=hidden;rotatable=0;points=[[0,0.5],[1,0.5]];portConstraint=eastwest;dropTarget=0;fontStyle=5;strokeColor=#909090;fontColor=#1A1A1A;rounded=1;" parent="2e49270ec7c68f3f-48" vertex="1">
          <mxGeometry y="60" width="233" height="30" as="geometry" />
        </mxCell>
        <mxCell id="2e49270ec7c68f3f-52" value="PK,FK2" style="shape=partialRectangle;fontStyle=1;top=0;left=0;bottom=0;html=1;fillColor=none;align=left;verticalAlign=middle;spacingLeft=4;spacingRight=4;whiteSpace=wrap;overflow=hidden;rotatable=0;points=[];portConstraint=eastwest;part=1;strokeColor=#909090;fontColor=#1A1A1A;rounded=1;" parent="2e49270ec7c68f3f-51" vertex="1" connectable="0">
          <mxGeometry width="138" height="30" as="geometry">
            <mxRectangle width="138" height="30" as="alternateBounds" />
          </mxGeometry>
        </mxCell>
        <mxCell id="YrgYbaN7kOxB59Jyv08Y-27" value="int" style="shape=partialRectangle;fontStyle=1;top=0;left=0;bottom=0;html=1;fillColor=none;align=left;verticalAlign=middle;spacingLeft=4;spacingRight=4;whiteSpace=wrap;overflow=hidden;rotatable=0;points=[];portConstraint=eastwest;part=1;strokeColor=#909090;fontColor=#1A1A1A;rounded=1;" parent="2e49270ec7c68f3f-51" vertex="1" connectable="0">
          <mxGeometry x="138" width="40" height="30" as="geometry">
            <mxRectangle width="40" height="30" as="alternateBounds" />
          </mxGeometry>
        </mxCell>
        <mxCell id="YrgYbaN7kOxB59Jyv08Y-37" value="not null" style="shape=partialRectangle;fontStyle=1;top=0;left=0;bottom=0;html=1;fillColor=none;align=left;verticalAlign=middle;spacingLeft=4;spacingRight=4;whiteSpace=wrap;overflow=hidden;rotatable=0;points=[];portConstraint=eastwest;part=1;strokeColor=#909090;fontColor=#808080;rounded=1;" parent="2e49270ec7c68f3f-51" vertex="1" connectable="0">
          <mxGeometry x="178" width="55" height="30" as="geometry">
            <mxRectangle width="55" height="30" as="alternateBounds" />
          </mxGeometry>
        </mxCell>
        <mxCell id="2e49270ec7c68f3f-80" value="Process" style="shape=table;startSize=26;container=1;collapsible=1;childLayout=tableLayout;fontSize=14;fontFamily=Verdana;fillColor=#cce5ff;strokeColor=#36393d;fontStyle=0;swimlaneFillColor=#ffffff;shadow=0;comic=0;labelBackgroundColor=none;strokeWidth=1;rounded=1;columnLines=0;rowLines=0;swimlaneLine=0;sketch=0;fixedRows=0;resizeLast=0;resizeLastRow=0;swimlaneHead=0;swimlaneBody=0;top=1;bottom=1;left=1;right=1;" parent="1" vertex="1">
          <mxGeometry x="552" y="660" width="328" height="124.75" as="geometry">
            <mxRectangle x="30" y="358" width="90" height="26" as="alternateBounds" />
          </mxGeometry>
        </mxCell>
        <mxCell id="2e49270ec7c68f3f-81" value="Id" style="shape=partialRectangle;top=0;left=0;right=0;bottom=1;html=1;align=left;verticalAlign=middle;fillColor=none;spacingLeft=34;spacingRight=4;whiteSpace=wrap;overflow=hidden;rotatable=0;points=[[0,0.5],[1,0.5]];portConstraint=eastwest;dropTarget=0;fontStyle=5;strokeColor=#909090;fontColor=#1A1A1A;rounded=1;" parent="2e49270ec7c68f3f-80" vertex="1">
          <mxGeometry y="26" width="328" height="34" as="geometry" />
        </mxCell>
        <mxCell id="2e49270ec7c68f3f-82" value="PK" style="shape=partialRectangle;top=0;left=0;bottom=0;html=1;fillColor=none;align=left;verticalAlign=middle;spacingLeft=4;spacingRight=4;whiteSpace=wrap;overflow=hidden;rotatable=0;points=[];portConstraint=eastwest;part=1;strokeColor=#909090;fontColor=#1A1A1A;rounded=1;" parent="2e49270ec7c68f3f-81" vertex="1" connectable="0">
          <mxGeometry width="160" height="34" as="geometry">
            <mxRectangle width="160" height="34" as="alternateBounds" />
          </mxGeometry>
        </mxCell>
        <mxCell id="YrgYbaN7kOxB59Jyv08Y-44" value="int" style="shape=partialRectangle;top=0;left=0;bottom=0;html=1;fillColor=none;align=left;verticalAlign=middle;spacingLeft=4;spacingRight=4;whiteSpace=wrap;overflow=hidden;rotatable=0;points=[];portConstraint=eastwest;part=1;strokeColor=#909090;fontColor=#1A1A1A;rounded=1;" parent="2e49270ec7c68f3f-81" vertex="1" connectable="0">
          <mxGeometry x="160" width="113" height="34" as="geometry">
            <mxRectangle width="113" height="34" as="alternateBounds" />
          </mxGeometry>
        </mxCell>
        <mxCell id="YrgYbaN7kOxB59Jyv08Y-48" value="&lt;span style=&quot;color: rgb(128, 128, 128);&quot;&gt;not null&lt;/span&gt;" style="shape=partialRectangle;top=0;left=0;bottom=0;html=1;fillColor=none;align=left;verticalAlign=middle;spacingLeft=4;spacingRight=4;whiteSpace=wrap;overflow=hidden;rotatable=0;points=[];portConstraint=eastwest;part=1;strokeColor=#909090;fontColor=#1A1A1A;rounded=1;" parent="2e49270ec7c68f3f-81" vertex="1" connectable="0">
          <mxGeometry x="273" width="55" height="34" as="geometry">
            <mxRectangle width="55" height="34" as="alternateBounds" />
          </mxGeometry>
        </mxCell>
        <mxCell id="2e49270ec7c68f3f-83" value="Name" style="shape=partialRectangle;top=0;left=0;right=0;bottom=0;html=1;align=left;verticalAlign=top;fillColor=none;spacingLeft=34;spacingRight=4;whiteSpace=wrap;overflow=hidden;rotatable=0;points=[[0,0.5],[1,0.5]];portConstraint=eastwest;dropTarget=0;strokeColor=#909090;fontColor=#1A1A1A;rounded=1;" parent="2e49270ec7c68f3f-80" vertex="1">
          <mxGeometry y="60" width="328" height="30" as="geometry" />
        </mxCell>
        <mxCell id="2e49270ec7c68f3f-84" value="" style="shape=partialRectangle;top=0;left=0;bottom=0;html=1;fillColor=none;align=left;verticalAlign=top;spacingLeft=4;spacingRight=4;whiteSpace=wrap;overflow=hidden;rotatable=0;points=[];portConstraint=eastwest;part=1;strokeColor=#909090;fontColor=#1A1A1A;rounded=1;" parent="2e49270ec7c68f3f-83" vertex="1" connectable="0">
          <mxGeometry width="160" height="30" as="geometry">
            <mxRectangle width="160" height="30" as="alternateBounds" />
          </mxGeometry>
        </mxCell>
        <mxCell id="YrgYbaN7kOxB59Jyv08Y-45" value="&lt;span style=&quot;&quot;&gt;nvarchar(max)&lt;/span&gt;" style="shape=partialRectangle;top=0;left=0;bottom=0;html=1;fillColor=none;align=left;verticalAlign=top;spacingLeft=4;spacingRight=4;whiteSpace=wrap;overflow=hidden;rotatable=0;points=[];portConstraint=eastwest;part=1;strokeColor=#909090;fontColor=#1A1A1A;rounded=1;" parent="2e49270ec7c68f3f-83" vertex="1" connectable="0">
          <mxGeometry x="160" width="113" height="30" as="geometry">
            <mxRectangle width="113" height="30" as="alternateBounds" />
          </mxGeometry>
        </mxCell>
        <mxCell id="YrgYbaN7kOxB59Jyv08Y-49" value="&lt;span style=&quot;color: rgb(128, 128, 128);&quot;&gt;not null&lt;/span&gt;" style="shape=partialRectangle;top=0;left=0;bottom=0;html=1;fillColor=none;align=left;verticalAlign=top;spacingLeft=4;spacingRight=4;whiteSpace=wrap;overflow=hidden;rotatable=0;points=[];portConstraint=eastwest;part=1;strokeColor=#909090;fontColor=#1A1A1A;rounded=1;" parent="2e49270ec7c68f3f-83" vertex="1" connectable="0">
          <mxGeometry x="273" width="55" height="30" as="geometry">
            <mxRectangle width="55" height="30" as="alternateBounds" />
          </mxGeometry>
        </mxCell>
        <mxCell id="jHfzLIDRbcKsJcGyYnRF-5" style="shape=partialRectangle;top=0;left=0;right=0;bottom=0;html=1;align=left;verticalAlign=top;fillColor=none;spacingLeft=34;spacingRight=4;whiteSpace=wrap;overflow=hidden;rotatable=0;points=[[0,0.5],[1,0.5]];portConstraint=eastwest;dropTarget=0;strokeColor=#909090;fontColor=#1A1A1A;rounded=1;horizontal=1;" vertex="1" parent="2e49270ec7c68f3f-80">
          <mxGeometry y="90" width="328" height="35" as="geometry" />
        </mxCell>
        <mxCell id="jHfzLIDRbcKsJcGyYnRF-6" value="&lt;span style=&quot;white-space: pre;&quot;&gt;	&lt;/span&gt;&amp;nbsp;Entity_name" style="shape=partialRectangle;top=0;left=0;bottom=0;html=1;fillColor=none;align=left;verticalAlign=top;spacingLeft=4;spacingRight=4;whiteSpace=wrap;overflow=hidden;rotatable=0;points=[];portConstraint=eastwest;part=1;strokeColor=#909090;fontColor=#1A1A1A;rounded=1;" vertex="1" connectable="0" parent="jHfzLIDRbcKsJcGyYnRF-5">
          <mxGeometry width="160" height="35" as="geometry">
            <mxRectangle width="160" height="35" as="alternateBounds" />
          </mxGeometry>
        </mxCell>
        <mxCell id="jHfzLIDRbcKsJcGyYnRF-7" value="&lt;span style=&quot;&quot;&gt;nvarchar(max)&lt;/span&gt;" style="shape=partialRectangle;top=0;left=0;bottom=0;html=1;fillColor=none;align=left;verticalAlign=top;spacingLeft=4;spacingRight=4;whiteSpace=wrap;overflow=hidden;rotatable=0;points=[];portConstraint=eastwest;part=1;strokeColor=#909090;fontColor=#1A1A1A;rounded=1;" vertex="1" connectable="0" parent="jHfzLIDRbcKsJcGyYnRF-5">
          <mxGeometry x="160" width="113" height="35" as="geometry">
            <mxRectangle width="113" height="35" as="alternateBounds" />
          </mxGeometry>
        </mxCell>
        <mxCell id="jHfzLIDRbcKsJcGyYnRF-8" value="&lt;span style=&quot;&quot;&gt;null&lt;/span&gt;" style="shape=partialRectangle;top=0;left=0;bottom=0;html=1;fillColor=none;align=left;verticalAlign=top;spacingLeft=4;spacingRight=4;whiteSpace=wrap;overflow=hidden;rotatable=0;points=[];portConstraint=eastwest;part=1;strokeColor=#909090;fontColor=#808080;rounded=1;" vertex="1" connectable="0" parent="jHfzLIDRbcKsJcGyYnRF-5">
          <mxGeometry x="273" width="55" height="35" as="geometry">
            <mxRectangle width="55" height="35" as="alternateBounds" />
          </mxGeometry>
        </mxCell>
        <mxCell id="vIAqwBNC-OFcZ53PO1-U-2" style="edgeStyle=orthogonalEdgeStyle;curved=0;rounded=1;sketch=0;orthogonalLoop=1;jettySize=auto;html=1;exitX=1;exitY=0.5;exitDx=0;exitDy=0;fontColor=#1a1a1a;strokeColor=#FFCCCC;startArrow=ERmany;startFill=0;endArrow=oval;endFill=1;" parent="1" source="2e49270ec7c68f3f-51" target="2e49270ec7c68f3f-20" edge="1">
          <mxGeometry relative="1" as="geometry" />
        </mxCell>
        <mxCell id="vIAqwBNC-OFcZ53PO1-U-3" style="edgeStyle=orthogonalEdgeStyle;curved=0;rounded=1;sketch=0;orthogonalLoop=1;jettySize=auto;html=1;entryX=0;entryY=0.5;entryDx=0;entryDy=0;fontColor=#1a1a1a;strokeColor=#99CCFF;endArrow=oval;endFill=1;startArrow=ERmany;startFill=0;" parent="1" source="2e49270ec7c68f3f-49" target="2e49270ec7c68f3f-81" edge="1">
          <mxGeometry relative="1" as="geometry" />
        </mxCell>
        <mxCell id="vIAqwBNC-OFcZ53PO1-U-21" value="URL_status" style="shape=table;startSize=26;container=1;collapsible=1;childLayout=tableLayout;fontSize=14;fontFamily=Verdana;fillColor=#d5e8d4;strokeColor=#82b366;fontStyle=0;swimlaneFillColor=#ffffff;shadow=0;comic=0;labelBackgroundColor=none;strokeWidth=1;rounded=1;columnLines=0;rowLines=0;swimlaneLine=0;sketch=0;fixedRows=0;resizeLast=0;resizeLastRow=0;swimlaneHead=0;swimlaneBody=0;top=1;bottom=1;left=1;right=1;" parent="1" vertex="1">
          <mxGeometry x="763" y="89" width="240" height="92" as="geometry" />
        </mxCell>
        <mxCell id="vIAqwBNC-OFcZ53PO1-U-22" value="Id" style="shape=partialRectangle;top=0;left=0;right=0;bottom=1;html=1;align=left;verticalAlign=middle;fillColor=none;spacingLeft=34;spacingRight=4;whiteSpace=wrap;overflow=hidden;rotatable=0;points=[[0,0.5],[1,0.5]];portConstraint=eastwest;dropTarget=0;fontStyle=5;strokeColor=#909090;fontColor=#1A1A1A;rounded=1;" parent="vIAqwBNC-OFcZ53PO1-U-21" vertex="1">
          <mxGeometry y="26" width="240" height="30" as="geometry" />
        </mxCell>
        <mxCell id="vIAqwBNC-OFcZ53PO1-U-23" value="PK" style="shape=partialRectangle;top=0;left=0;bottom=0;html=1;fillColor=none;align=left;verticalAlign=middle;spacingLeft=4;spacingRight=4;whiteSpace=wrap;overflow=hidden;rotatable=0;points=[];portConstraint=eastwest;part=1;strokeColor=#909090;fontColor=#1A1A1A;rounded=1;" parent="vIAqwBNC-OFcZ53PO1-U-22" vertex="1" connectable="0">
          <mxGeometry width="100" height="30" as="geometry">
            <mxRectangle width="100" height="30" as="alternateBounds" />
          </mxGeometry>
        </mxCell>
        <mxCell id="YrgYbaN7kOxB59Jyv08Y-103" value="int" style="shape=partialRectangle;top=0;left=0;bottom=0;html=1;fillColor=none;align=left;verticalAlign=middle;spacingLeft=4;spacingRight=4;whiteSpace=wrap;overflow=hidden;rotatable=0;points=[];portConstraint=eastwest;part=1;strokeColor=#909090;fontColor=#1A1A1A;rounded=1;" parent="vIAqwBNC-OFcZ53PO1-U-22" vertex="1" connectable="0">
          <mxGeometry x="100" width="90" height="30" as="geometry">
            <mxRectangle width="90" height="30" as="alternateBounds" />
          </mxGeometry>
        </mxCell>
        <mxCell id="YrgYbaN7kOxB59Jyv08Y-106" value="&lt;span style=&quot;color: rgb(128, 128, 128);&quot;&gt;not null&lt;/span&gt;" style="shape=partialRectangle;top=0;left=0;bottom=0;html=1;fillColor=none;align=left;verticalAlign=middle;spacingLeft=4;spacingRight=4;whiteSpace=wrap;overflow=hidden;rotatable=0;points=[];portConstraint=eastwest;part=1;strokeColor=#909090;fontColor=#1A1A1A;rounded=1;" parent="vIAqwBNC-OFcZ53PO1-U-22" vertex="1" connectable="0">
          <mxGeometry x="190" width="50" height="30" as="geometry">
            <mxRectangle width="50" height="30" as="alternateBounds" />
          </mxGeometry>
        </mxCell>
        <mxCell id="vIAqwBNC-OFcZ53PO1-U-24" value="Name" style="shape=partialRectangle;top=0;left=0;right=0;bottom=0;html=1;align=left;verticalAlign=top;fillColor=none;spacingLeft=34;spacingRight=4;whiteSpace=wrap;overflow=hidden;rotatable=0;points=[[0,0.5],[1,0.5]];portConstraint=eastwest;dropTarget=0;strokeColor=#909090;fontColor=#1A1A1A;rounded=1;" parent="vIAqwBNC-OFcZ53PO1-U-21" vertex="1">
          <mxGeometry y="56" width="240" height="26" as="geometry" />
        </mxCell>
        <mxCell id="vIAqwBNC-OFcZ53PO1-U-25" value="" style="shape=partialRectangle;top=0;left=0;bottom=0;html=1;fillColor=none;align=left;verticalAlign=top;spacingLeft=4;spacingRight=4;whiteSpace=wrap;overflow=hidden;rotatable=0;points=[];portConstraint=eastwest;part=1;strokeColor=#909090;fontColor=#1A1A1A;rounded=1;" parent="vIAqwBNC-OFcZ53PO1-U-24" vertex="1" connectable="0">
          <mxGeometry width="100" height="26" as="geometry">
            <mxRectangle width="100" height="26" as="alternateBounds" />
          </mxGeometry>
        </mxCell>
        <mxCell id="YrgYbaN7kOxB59Jyv08Y-104" value="&lt;span style=&quot;&quot;&gt;nvarchar(max)&lt;/span&gt;" style="shape=partialRectangle;top=0;left=0;bottom=0;html=1;fillColor=none;align=left;verticalAlign=top;spacingLeft=4;spacingRight=4;whiteSpace=wrap;overflow=hidden;rotatable=0;points=[];portConstraint=eastwest;part=1;strokeColor=#909090;fontColor=#1A1A1A;rounded=1;" parent="vIAqwBNC-OFcZ53PO1-U-24" vertex="1" connectable="0">
          <mxGeometry x="100" width="90" height="26" as="geometry">
            <mxRectangle width="90" height="26" as="alternateBounds" />
          </mxGeometry>
        </mxCell>
        <mxCell id="YrgYbaN7kOxB59Jyv08Y-107" value="&lt;span style=&quot;color: rgb(128, 128, 128);&quot;&gt;null&lt;/span&gt;" style="shape=partialRectangle;top=0;left=0;bottom=0;html=1;fillColor=none;align=left;verticalAlign=top;spacingLeft=4;spacingRight=4;whiteSpace=wrap;overflow=hidden;rotatable=0;points=[];portConstraint=eastwest;part=1;strokeColor=#909090;fontColor=#1A1A1A;rounded=1;" parent="vIAqwBNC-OFcZ53PO1-U-24" vertex="1" connectable="0">
          <mxGeometry x="190" width="50" height="26" as="geometry">
            <mxRectangle width="50" height="26" as="alternateBounds" />
          </mxGeometry>
        </mxCell>
        <mxCell id="vIAqwBNC-OFcZ53PO1-U-26" value="" style="shape=partialRectangle;top=0;left=0;right=0;bottom=0;html=1;align=left;verticalAlign=top;fillColor=none;spacingLeft=34;spacingRight=4;whiteSpace=wrap;overflow=hidden;rotatable=0;points=[[0,0.5],[1,0.5]];portConstraint=eastwest;dropTarget=0;strokeColor=#909090;fontColor=#1A1A1A;rounded=1;" parent="vIAqwBNC-OFcZ53PO1-U-21" vertex="1">
          <mxGeometry y="82" width="240" height="10" as="geometry" />
        </mxCell>
        <mxCell id="vIAqwBNC-OFcZ53PO1-U-27" value="" style="shape=partialRectangle;top=0;left=0;bottom=0;html=1;fillColor=none;align=left;verticalAlign=top;spacingLeft=4;spacingRight=4;whiteSpace=wrap;overflow=hidden;rotatable=0;points=[];portConstraint=eastwest;part=1;strokeColor=#909090;fontColor=#1A1A1A;rounded=1;" parent="vIAqwBNC-OFcZ53PO1-U-26" vertex="1" connectable="0">
          <mxGeometry width="100" height="10" as="geometry">
            <mxRectangle width="100" height="10" as="alternateBounds" />
          </mxGeometry>
        </mxCell>
        <mxCell id="YrgYbaN7kOxB59Jyv08Y-105" style="shape=partialRectangle;top=0;left=0;bottom=0;html=1;fillColor=none;align=left;verticalAlign=top;spacingLeft=4;spacingRight=4;whiteSpace=wrap;overflow=hidden;rotatable=0;points=[];portConstraint=eastwest;part=1;strokeColor=#909090;fontColor=#1A1A1A;rounded=1;" parent="vIAqwBNC-OFcZ53PO1-U-26" vertex="1" connectable="0">
          <mxGeometry x="100" width="90" height="10" as="geometry">
            <mxRectangle width="90" height="10" as="alternateBounds" />
          </mxGeometry>
        </mxCell>
        <mxCell id="YrgYbaN7kOxB59Jyv08Y-108" style="shape=partialRectangle;top=0;left=0;bottom=0;html=1;fillColor=none;align=left;verticalAlign=top;spacingLeft=4;spacingRight=4;whiteSpace=wrap;overflow=hidden;rotatable=0;points=[];portConstraint=eastwest;part=1;strokeColor=#909090;fontColor=#1A1A1A;rounded=1;" parent="vIAqwBNC-OFcZ53PO1-U-26" vertex="1" connectable="0">
          <mxGeometry x="190" width="50" height="10" as="geometry">
            <mxRectangle width="50" height="10" as="alternateBounds" />
          </mxGeometry>
        </mxCell>
        <mxCell id="vIAqwBNC-OFcZ53PO1-U-30" value="Events" style="shape=table;startSize=26;container=1;collapsible=1;childLayout=tableLayout;fontSize=14;fontFamily=Verdana;fillColor=#b0e3e6;strokeColor=#0e8088;fontStyle=0;swimlaneFillColor=#ffffff;shadow=0;comic=0;labelBackgroundColor=none;strokeWidth=1;rounded=1;columnLines=0;rowLines=0;swimlaneLine=0;sketch=0;fixedRows=0;resizeLast=0;resizeLastRow=0;swimlaneHead=0;swimlaneBody=0;top=1;bottom=1;left=1;right=1;" parent="1" vertex="1">
          <mxGeometry x="630" y="368" width="328" height="248" as="geometry" />
        </mxCell>
        <mxCell id="vIAqwBNC-OFcZ53PO1-U-31" value="Id" style="shape=partialRectangle;top=0;left=0;right=0;bottom=1;html=1;align=left;verticalAlign=middle;fillColor=none;spacingLeft=34;spacingRight=4;whiteSpace=wrap;overflow=hidden;rotatable=0;points=[[0,0.5],[1,0.5]];portConstraint=eastwest;dropTarget=0;fontStyle=5;strokeColor=#909090;fontColor=#1A1A1A;rounded=1;" parent="vIAqwBNC-OFcZ53PO1-U-30" vertex="1">
          <mxGeometry y="26" width="328" height="30" as="geometry" />
        </mxCell>
        <mxCell id="vIAqwBNC-OFcZ53PO1-U-32" value="PK" style="shape=partialRectangle;top=0;left=0;bottom=0;html=1;fillColor=none;align=left;verticalAlign=middle;spacingLeft=4;spacingRight=4;whiteSpace=wrap;overflow=hidden;rotatable=0;points=[];portConstraint=eastwest;part=1;strokeColor=#909090;fontColor=#1A1A1A;rounded=1;" parent="vIAqwBNC-OFcZ53PO1-U-31" vertex="1" connectable="0">
          <mxGeometry width="160" height="30" as="geometry">
            <mxRectangle width="160" height="30" as="alternateBounds" />
          </mxGeometry>
        </mxCell>
        <mxCell id="YrgYbaN7kOxB59Jyv08Y-52" value="int" style="shape=partialRectangle;top=0;left=0;bottom=0;html=1;fillColor=none;align=left;verticalAlign=middle;spacingLeft=4;spacingRight=4;whiteSpace=wrap;overflow=hidden;rotatable=0;points=[];portConstraint=eastwest;part=1;strokeColor=#909090;fontColor=#1A1A1A;rounded=1;" parent="vIAqwBNC-OFcZ53PO1-U-31" vertex="1" connectable="0">
          <mxGeometry x="160" width="113" height="30" as="geometry">
            <mxRectangle width="113" height="30" as="alternateBounds" />
          </mxGeometry>
        </mxCell>
        <mxCell id="YrgYbaN7kOxB59Jyv08Y-61" value="&lt;span style=&quot;color: rgb(128, 128, 128);&quot;&gt;not null&lt;/span&gt;" style="shape=partialRectangle;top=0;left=0;bottom=0;html=1;fillColor=none;align=left;verticalAlign=middle;spacingLeft=4;spacingRight=4;whiteSpace=wrap;overflow=hidden;rotatable=0;points=[];portConstraint=eastwest;part=1;strokeColor=#909090;fontColor=#1A1A1A;rounded=1;" parent="vIAqwBNC-OFcZ53PO1-U-31" vertex="1" connectable="0">
          <mxGeometry x="273" width="55" height="30" as="geometry">
            <mxRectangle width="55" height="30" as="alternateBounds" />
          </mxGeometry>
        </mxCell>
        <mxCell id="vIAqwBNC-OFcZ53PO1-U-35" value="File_id" style="shape=partialRectangle;top=0;left=0;right=0;bottom=0;html=1;align=left;verticalAlign=middle;fillColor=none;spacingLeft=34;spacingRight=4;whiteSpace=wrap;overflow=hidden;rotatable=0;points=[[0,0.5],[1,0.5]];portConstraint=eastwest;dropTarget=0;strokeColor=#909090;fontColor=#1A1A1A;rounded=1;fontStyle=5;" parent="vIAqwBNC-OFcZ53PO1-U-30" vertex="1">
          <mxGeometry y="56" width="328" height="26" as="geometry" />
        </mxCell>
        <mxCell id="vIAqwBNC-OFcZ53PO1-U-36" value="&lt;font style=&quot;font-size: 11px;&quot;&gt;FK2&lt;/font&gt;" style="shape=partialRectangle;top=0;left=0;bottom=0;html=1;fillColor=none;align=left;verticalAlign=top;spacingLeft=4;spacingRight=4;whiteSpace=wrap;overflow=hidden;rotatable=0;points=[];portConstraint=eastwest;part=1;strokeColor=#909090;fontColor=#1A1A1A;rounded=1;" parent="vIAqwBNC-OFcZ53PO1-U-35" vertex="1" connectable="0">
          <mxGeometry width="160" height="26" as="geometry">
            <mxRectangle width="160" height="26" as="alternateBounds" />
          </mxGeometry>
        </mxCell>
        <mxCell id="YrgYbaN7kOxB59Jyv08Y-53" value="int" style="shape=partialRectangle;top=0;left=0;bottom=0;html=1;fillColor=none;align=left;verticalAlign=top;spacingLeft=4;spacingRight=4;whiteSpace=wrap;overflow=hidden;rotatable=0;points=[];portConstraint=eastwest;part=1;strokeColor=#909090;fontColor=#1A1A1A;rounded=1;" parent="vIAqwBNC-OFcZ53PO1-U-35" vertex="1" connectable="0">
          <mxGeometry x="160" width="113" height="26" as="geometry">
            <mxRectangle width="113" height="26" as="alternateBounds" />
          </mxGeometry>
        </mxCell>
        <mxCell id="YrgYbaN7kOxB59Jyv08Y-62" value="&lt;span style=&quot;color: rgb(128, 128, 128);&quot;&gt;not null&lt;/span&gt;" style="shape=partialRectangle;top=0;left=0;bottom=0;html=1;fillColor=none;align=left;verticalAlign=top;spacingLeft=4;spacingRight=4;whiteSpace=wrap;overflow=hidden;rotatable=0;points=[];portConstraint=eastwest;part=1;strokeColor=#909090;fontColor=#1A1A1A;rounded=1;" parent="vIAqwBNC-OFcZ53PO1-U-35" vertex="1" connectable="0">
          <mxGeometry x="273" width="55" height="26" as="geometry">
            <mxRectangle width="55" height="26" as="alternateBounds" />
          </mxGeometry>
        </mxCell>
        <mxCell id="vIAqwBNC-OFcZ53PO1-U-33" value="Process_id" style="shape=partialRectangle;top=0;left=0;right=0;bottom=0;html=1;align=left;verticalAlign=middle;fillColor=none;spacingLeft=34;spacingRight=4;whiteSpace=wrap;overflow=hidden;rotatable=0;points=[[0,0.5],[1,0.5]];portConstraint=eastwest;dropTarget=0;strokeColor=#909090;fontColor=#1A1A1A;rounded=1;fontStyle=5;" parent="vIAqwBNC-OFcZ53PO1-U-30" vertex="1">
          <mxGeometry y="82" width="328" height="26" as="geometry" />
        </mxCell>
        <mxCell id="vIAqwBNC-OFcZ53PO1-U-34" value="FK1" style="shape=partialRectangle;top=0;left=0;bottom=0;html=1;fillColor=none;align=left;verticalAlign=top;spacingLeft=4;spacingRight=4;whiteSpace=wrap;overflow=hidden;rotatable=0;points=[];portConstraint=eastwest;part=1;strokeColor=#909090;fontColor=#1A1A1A;rounded=1;" parent="vIAqwBNC-OFcZ53PO1-U-33" vertex="1" connectable="0">
          <mxGeometry width="160" height="26" as="geometry">
            <mxRectangle width="160" height="26" as="alternateBounds" />
          </mxGeometry>
        </mxCell>
        <mxCell id="YrgYbaN7kOxB59Jyv08Y-54" value="int" style="shape=partialRectangle;top=0;left=0;bottom=0;html=1;fillColor=none;align=left;verticalAlign=top;spacingLeft=4;spacingRight=4;whiteSpace=wrap;overflow=hidden;rotatable=0;points=[];portConstraint=eastwest;part=1;strokeColor=#909090;fontColor=#1A1A1A;rounded=1;" parent="vIAqwBNC-OFcZ53PO1-U-33" vertex="1" connectable="0">
          <mxGeometry x="160" width="113" height="26" as="geometry">
            <mxRectangle width="113" height="26" as="alternateBounds" />
          </mxGeometry>
        </mxCell>
        <mxCell id="YrgYbaN7kOxB59Jyv08Y-63" value="&lt;span style=&quot;color: rgb(128, 128, 128);&quot;&gt;not null&lt;/span&gt;" style="shape=partialRectangle;top=0;left=0;bottom=0;html=1;fillColor=none;align=left;verticalAlign=top;spacingLeft=4;spacingRight=4;whiteSpace=wrap;overflow=hidden;rotatable=0;points=[];portConstraint=eastwest;part=1;strokeColor=#909090;fontColor=#1A1A1A;rounded=1;" parent="vIAqwBNC-OFcZ53PO1-U-33" vertex="1" connectable="0">
          <mxGeometry x="273" width="55" height="26" as="geometry">
            <mxRectangle width="55" height="26" as="alternateBounds" />
          </mxGeometry>
        </mxCell>
        <mxCell id="vIAqwBNC-OFcZ53PO1-U-41" value="Name" style="shape=partialRectangle;top=0;left=0;right=0;bottom=0;html=1;align=left;verticalAlign=top;fillColor=none;spacingLeft=34;spacingRight=4;whiteSpace=wrap;overflow=hidden;rotatable=0;points=[[0,0.5],[1,0.5]];portConstraint=eastwest;dropTarget=0;strokeColor=#909090;fontColor=#1A1A1A;rounded=1;" parent="vIAqwBNC-OFcZ53PO1-U-30" vertex="1">
          <mxGeometry y="108" width="328" height="26" as="geometry" />
        </mxCell>
        <mxCell id="vIAqwBNC-OFcZ53PO1-U-42" value="" style="shape=partialRectangle;top=0;left=0;bottom=0;html=1;fillColor=none;align=left;verticalAlign=top;spacingLeft=4;spacingRight=4;whiteSpace=wrap;overflow=hidden;rotatable=0;points=[];portConstraint=eastwest;part=1;strokeColor=#909090;fontColor=#1A1A1A;rounded=1;" parent="vIAqwBNC-OFcZ53PO1-U-41" vertex="1" connectable="0">
          <mxGeometry width="160" height="26" as="geometry">
            <mxRectangle width="160" height="26" as="alternateBounds" />
          </mxGeometry>
        </mxCell>
        <mxCell id="YrgYbaN7kOxB59Jyv08Y-55" value="&lt;span style=&quot;&quot;&gt;nvarchar(max)&lt;/span&gt;" style="shape=partialRectangle;top=0;left=0;bottom=0;html=1;fillColor=none;align=left;verticalAlign=top;spacingLeft=4;spacingRight=4;whiteSpace=wrap;overflow=hidden;rotatable=0;points=[];portConstraint=eastwest;part=1;strokeColor=#909090;fontColor=#1A1A1A;rounded=1;" parent="vIAqwBNC-OFcZ53PO1-U-41" vertex="1" connectable="0">
          <mxGeometry x="160" width="113" height="26" as="geometry">
            <mxRectangle width="113" height="26" as="alternateBounds" />
          </mxGeometry>
        </mxCell>
        <mxCell id="YrgYbaN7kOxB59Jyv08Y-64" value="&lt;span style=&quot;color: rgb(128, 128, 128);&quot;&gt;null&lt;/span&gt;" style="shape=partialRectangle;top=0;left=0;bottom=0;html=1;fillColor=none;align=left;verticalAlign=top;spacingLeft=4;spacingRight=4;whiteSpace=wrap;overflow=hidden;rotatable=0;points=[];portConstraint=eastwest;part=1;strokeColor=#909090;fontColor=#1A1A1A;rounded=1;" parent="vIAqwBNC-OFcZ53PO1-U-41" vertex="1" connectable="0">
          <mxGeometry x="273" width="55" height="26" as="geometry">
            <mxRectangle width="55" height="26" as="alternateBounds" />
          </mxGeometry>
        </mxCell>
        <mxCell id="vIAqwBNC-OFcZ53PO1-U-45" value="Detalle" style="shape=partialRectangle;top=0;left=0;right=0;bottom=0;html=1;align=left;verticalAlign=top;fillColor=none;spacingLeft=34;spacingRight=4;whiteSpace=wrap;overflow=hidden;rotatable=0;points=[[0,0.5],[1,0.5]];portConstraint=eastwest;dropTarget=0;strokeColor=#909090;fontColor=#1A1A1A;rounded=1;" parent="vIAqwBNC-OFcZ53PO1-U-30" vertex="1">
          <mxGeometry y="134" width="328" height="26" as="geometry" />
        </mxCell>
        <mxCell id="vIAqwBNC-OFcZ53PO1-U-46" value="" style="shape=partialRectangle;top=0;left=0;bottom=0;html=1;fillColor=none;align=left;verticalAlign=top;spacingLeft=4;spacingRight=4;whiteSpace=wrap;overflow=hidden;rotatable=0;points=[];portConstraint=eastwest;part=1;strokeColor=#909090;fontColor=#1A1A1A;rounded=1;" parent="vIAqwBNC-OFcZ53PO1-U-45" vertex="1" connectable="0">
          <mxGeometry width="160" height="26" as="geometry">
            <mxRectangle width="160" height="26" as="alternateBounds" />
          </mxGeometry>
        </mxCell>
        <mxCell id="YrgYbaN7kOxB59Jyv08Y-56" value="&lt;span style=&quot;&quot;&gt;nvarchar(max)&lt;/span&gt;" style="shape=partialRectangle;top=0;left=0;bottom=0;html=1;fillColor=none;align=left;verticalAlign=top;spacingLeft=4;spacingRight=4;whiteSpace=wrap;overflow=hidden;rotatable=0;points=[];portConstraint=eastwest;part=1;strokeColor=#909090;fontColor=#1A1A1A;rounded=1;" parent="vIAqwBNC-OFcZ53PO1-U-45" vertex="1" connectable="0">
          <mxGeometry x="160" width="113" height="26" as="geometry">
            <mxRectangle width="113" height="26" as="alternateBounds" />
          </mxGeometry>
        </mxCell>
        <mxCell id="YrgYbaN7kOxB59Jyv08Y-65" value="&lt;span style=&quot;color: rgb(128, 128, 128);&quot;&gt;null&lt;/span&gt;" style="shape=partialRectangle;top=0;left=0;bottom=0;html=1;fillColor=none;align=left;verticalAlign=top;spacingLeft=4;spacingRight=4;whiteSpace=wrap;overflow=hidden;rotatable=0;points=[];portConstraint=eastwest;part=1;strokeColor=#909090;fontColor=#1A1A1A;rounded=1;" parent="vIAqwBNC-OFcZ53PO1-U-45" vertex="1" connectable="0">
          <mxGeometry x="273" width="55" height="26" as="geometry">
            <mxRectangle width="55" height="26" as="alternateBounds" />
          </mxGeometry>
        </mxCell>
        <mxCell id="vIAqwBNC-OFcZ53PO1-U-37" value="Generation_date" style="shape=partialRectangle;top=0;left=0;right=0;bottom=0;html=1;align=left;verticalAlign=top;fillColor=none;spacingLeft=34;spacingRight=4;whiteSpace=wrap;overflow=hidden;rotatable=0;points=[[0,0.5],[1,0.5]];portConstraint=eastwest;dropTarget=0;strokeColor=#909090;fontColor=#1A1A1A;rounded=1;" parent="vIAqwBNC-OFcZ53PO1-U-30" vertex="1">
          <mxGeometry y="160" width="328" height="26" as="geometry" />
        </mxCell>
        <mxCell id="vIAqwBNC-OFcZ53PO1-U-38" value="" style="shape=partialRectangle;top=0;left=0;bottom=0;html=1;fillColor=none;align=left;verticalAlign=top;spacingLeft=4;spacingRight=4;whiteSpace=wrap;overflow=hidden;rotatable=0;points=[];portConstraint=eastwest;part=1;strokeColor=#909090;fontColor=#1A1A1A;rounded=1;" parent="vIAqwBNC-OFcZ53PO1-U-37" vertex="1" connectable="0">
          <mxGeometry width="160" height="26" as="geometry">
            <mxRectangle width="160" height="26" as="alternateBounds" />
          </mxGeometry>
        </mxCell>
        <mxCell id="YrgYbaN7kOxB59Jyv08Y-57" value="datetime2(7)" style="shape=partialRectangle;top=0;left=0;bottom=0;html=1;fillColor=none;align=left;verticalAlign=top;spacingLeft=4;spacingRight=4;whiteSpace=wrap;overflow=hidden;rotatable=0;points=[];portConstraint=eastwest;part=1;strokeColor=#909090;fontColor=#1A1A1A;rounded=1;" parent="vIAqwBNC-OFcZ53PO1-U-37" vertex="1" connectable="0">
          <mxGeometry x="160" width="113" height="26" as="geometry">
            <mxRectangle width="113" height="26" as="alternateBounds" />
          </mxGeometry>
        </mxCell>
        <mxCell id="YrgYbaN7kOxB59Jyv08Y-66" value="&lt;span style=&quot;color: rgb(128, 128, 128);&quot;&gt;null&lt;/span&gt;" style="shape=partialRectangle;top=0;left=0;bottom=0;html=1;fillColor=none;align=left;verticalAlign=top;spacingLeft=4;spacingRight=4;whiteSpace=wrap;overflow=hidden;rotatable=0;points=[];portConstraint=eastwest;part=1;strokeColor=#909090;fontColor=#1A1A1A;rounded=1;" parent="vIAqwBNC-OFcZ53PO1-U-37" vertex="1" connectable="0">
          <mxGeometry x="273" width="55" height="26" as="geometry">
            <mxRectangle width="55" height="26" as="alternateBounds" />
          </mxGeometry>
        </mxCell>
        <mxCell id="vIAqwBNC-OFcZ53PO1-U-39" value="User_Id" style="shape=partialRectangle;top=0;left=0;right=0;bottom=0;html=1;align=left;verticalAlign=top;fillColor=none;spacingLeft=34;spacingRight=4;whiteSpace=wrap;overflow=hidden;rotatable=0;points=[[0,0.5],[1,0.5]];portConstraint=eastwest;dropTarget=0;strokeColor=#909090;fontColor=#1A1A1A;rounded=1;" parent="vIAqwBNC-OFcZ53PO1-U-30" vertex="1">
          <mxGeometry y="186" width="328" height="26" as="geometry" />
        </mxCell>
        <mxCell id="vIAqwBNC-OFcZ53PO1-U-40" value="" style="shape=partialRectangle;top=0;left=0;bottom=0;html=1;fillColor=none;align=left;verticalAlign=top;spacingLeft=4;spacingRight=4;whiteSpace=wrap;overflow=hidden;rotatable=0;points=[];portConstraint=eastwest;part=1;strokeColor=#909090;fontColor=#1A1A1A;rounded=1;" parent="vIAqwBNC-OFcZ53PO1-U-39" vertex="1" connectable="0">
          <mxGeometry width="160" height="26" as="geometry">
            <mxRectangle width="160" height="26" as="alternateBounds" />
          </mxGeometry>
        </mxCell>
        <mxCell id="YrgYbaN7kOxB59Jyv08Y-58" value="int" style="shape=partialRectangle;top=0;left=0;bottom=0;html=1;fillColor=none;align=left;verticalAlign=top;spacingLeft=4;spacingRight=4;whiteSpace=wrap;overflow=hidden;rotatable=0;points=[];portConstraint=eastwest;part=1;strokeColor=#909090;fontColor=#1A1A1A;rounded=1;" parent="vIAqwBNC-OFcZ53PO1-U-39" vertex="1" connectable="0">
          <mxGeometry x="160" width="113" height="26" as="geometry">
            <mxRectangle width="113" height="26" as="alternateBounds" />
          </mxGeometry>
        </mxCell>
        <mxCell id="YrgYbaN7kOxB59Jyv08Y-67" value="&lt;span style=&quot;color: rgb(128, 128, 128);&quot;&gt;null&lt;/span&gt;" style="shape=partialRectangle;top=0;left=0;bottom=0;html=1;fillColor=none;align=left;verticalAlign=top;spacingLeft=4;spacingRight=4;whiteSpace=wrap;overflow=hidden;rotatable=0;points=[];portConstraint=eastwest;part=1;strokeColor=#909090;fontColor=#1A1A1A;rounded=1;" parent="vIAqwBNC-OFcZ53PO1-U-39" vertex="1" connectable="0">
          <mxGeometry x="273" width="55" height="26" as="geometry">
            <mxRectangle width="55" height="26" as="alternateBounds" />
          </mxGeometry>
        </mxCell>
        <mxCell id="vIAqwBNC-OFcZ53PO1-U-53" value="Entity_name" style="shape=partialRectangle;top=0;left=0;right=0;bottom=0;html=1;align=left;verticalAlign=top;fillColor=none;spacingLeft=34;spacingRight=4;whiteSpace=wrap;overflow=hidden;rotatable=0;points=[[0,0.5],[1,0.5]];portConstraint=eastwest;dropTarget=0;strokeColor=#909090;fontColor=#1A1A1A;rounded=1;" parent="vIAqwBNC-OFcZ53PO1-U-30" vertex="1">
          <mxGeometry y="212" width="328" height="26" as="geometry" />
        </mxCell>
        <mxCell id="vIAqwBNC-OFcZ53PO1-U-54" value="" style="shape=partialRectangle;top=0;left=0;bottom=0;html=1;fillColor=none;align=left;verticalAlign=top;spacingLeft=4;spacingRight=4;whiteSpace=wrap;overflow=hidden;rotatable=0;points=[];portConstraint=eastwest;part=1;strokeColor=#909090;fontColor=#1A1A1A;rounded=1;" parent="vIAqwBNC-OFcZ53PO1-U-53" vertex="1" connectable="0">
          <mxGeometry width="160" height="26" as="geometry">
            <mxRectangle width="160" height="26" as="alternateBounds" />
          </mxGeometry>
        </mxCell>
        <mxCell id="YrgYbaN7kOxB59Jyv08Y-59" value="&lt;span style=&quot;&quot;&gt;nvarchar(max)&lt;/span&gt;" style="shape=partialRectangle;top=0;left=0;bottom=0;html=1;fillColor=none;align=left;verticalAlign=top;spacingLeft=4;spacingRight=4;whiteSpace=wrap;overflow=hidden;rotatable=0;points=[];portConstraint=eastwest;part=1;strokeColor=#909090;fontColor=#1A1A1A;rounded=1;" parent="vIAqwBNC-OFcZ53PO1-U-53" vertex="1" connectable="0">
          <mxGeometry x="160" width="113" height="26" as="geometry">
            <mxRectangle width="113" height="26" as="alternateBounds" />
          </mxGeometry>
        </mxCell>
        <mxCell id="YrgYbaN7kOxB59Jyv08Y-68" value="&lt;span style=&quot;color: rgb(128, 128, 128);&quot;&gt;null&lt;/span&gt;" style="shape=partialRectangle;top=0;left=0;bottom=0;html=1;fillColor=none;align=left;verticalAlign=top;spacingLeft=4;spacingRight=4;whiteSpace=wrap;overflow=hidden;rotatable=0;points=[];portConstraint=eastwest;part=1;strokeColor=#909090;fontColor=#1A1A1A;rounded=1;" parent="vIAqwBNC-OFcZ53PO1-U-53" vertex="1" connectable="0">
          <mxGeometry x="273" width="55" height="26" as="geometry">
            <mxRectangle width="55" height="26" as="alternateBounds" />
          </mxGeometry>
        </mxCell>
        <mxCell id="vIAqwBNC-OFcZ53PO1-U-43" value="" style="shape=partialRectangle;top=0;left=0;right=0;bottom=0;html=1;align=left;verticalAlign=top;fillColor=none;spacingLeft=34;spacingRight=4;whiteSpace=wrap;overflow=hidden;rotatable=0;points=[[0,0.5],[1,0.5]];portConstraint=eastwest;dropTarget=0;strokeColor=#909090;fontColor=#1A1A1A;rounded=1;" parent="vIAqwBNC-OFcZ53PO1-U-30" vertex="1">
          <mxGeometry y="238" width="328" height="10" as="geometry" />
        </mxCell>
        <mxCell id="vIAqwBNC-OFcZ53PO1-U-44" value="" style="shape=partialRectangle;top=0;left=0;bottom=0;html=1;fillColor=none;align=left;verticalAlign=top;spacingLeft=4;spacingRight=4;whiteSpace=wrap;overflow=hidden;rotatable=0;points=[];portConstraint=eastwest;part=1;strokeColor=#909090;fontColor=#1A1A1A;rounded=1;" parent="vIAqwBNC-OFcZ53PO1-U-43" vertex="1" connectable="0">
          <mxGeometry width="160" height="10" as="geometry">
            <mxRectangle width="160" height="10" as="alternateBounds" />
          </mxGeometry>
        </mxCell>
        <mxCell id="YrgYbaN7kOxB59Jyv08Y-60" style="shape=partialRectangle;top=0;left=0;bottom=0;html=1;fillColor=none;align=left;verticalAlign=top;spacingLeft=4;spacingRight=4;whiteSpace=wrap;overflow=hidden;rotatable=0;points=[];portConstraint=eastwest;part=1;strokeColor=#909090;fontColor=#1A1A1A;rounded=1;" parent="vIAqwBNC-OFcZ53PO1-U-43" vertex="1" connectable="0">
          <mxGeometry x="160" width="113" height="10" as="geometry">
            <mxRectangle width="113" height="10" as="alternateBounds" />
          </mxGeometry>
        </mxCell>
        <mxCell id="YrgYbaN7kOxB59Jyv08Y-69" style="shape=partialRectangle;top=0;left=0;bottom=0;html=1;fillColor=none;align=left;verticalAlign=top;spacingLeft=4;spacingRight=4;whiteSpace=wrap;overflow=hidden;rotatable=0;points=[];portConstraint=eastwest;part=1;strokeColor=#909090;fontColor=#1A1A1A;rounded=1;" parent="vIAqwBNC-OFcZ53PO1-U-43" vertex="1" connectable="0">
          <mxGeometry x="273" width="55" height="10" as="geometry">
            <mxRectangle width="55" height="10" as="alternateBounds" />
          </mxGeometry>
        </mxCell>
        <mxCell id="vIAqwBNC-OFcZ53PO1-U-75" style="edgeStyle=orthogonalEdgeStyle;curved=0;rounded=1;sketch=0;orthogonalLoop=1;jettySize=auto;html=1;fontSize=11;fontColor=#1a1a1a;startArrow=ERmany;startFill=0;endArrow=oval;endFill=1;strokeColor=#2EBFA7;entryX=0;entryY=0.5;entryDx=0;entryDy=0;" parent="1" source="vIAqwBNC-OFcZ53PO1-U-33" target="2e49270ec7c68f3f-81" edge="1">
          <mxGeometry relative="1" as="geometry">
            <mxPoint x="-10" y="458" as="targetPoint" />
          </mxGeometry>
        </mxCell>
        <mxCell id="vIAqwBNC-OFcZ53PO1-U-76" style="edgeStyle=orthogonalEdgeStyle;curved=0;rounded=1;sketch=0;orthogonalLoop=1;jettySize=auto;html=1;entryX=1;entryY=0.5;entryDx=0;entryDy=0;fontSize=11;fontColor=#1a1a1a;startArrow=ERmany;startFill=0;endArrow=oval;endFill=1;strokeColor=#2EBFA7;" parent="1" source="vIAqwBNC-OFcZ53PO1-U-35" target="2e49270ec7c68f3f-9" edge="1">
          <mxGeometry relative="1" as="geometry">
            <Array as="points">
              <mxPoint x="425" y="437" />
              <mxPoint x="425" y="513" />
              <mxPoint x="220" y="513" />
            </Array>
          </mxGeometry>
        </mxCell>
        <mxCell id="vIAqwBNC-OFcZ53PO1-U-77" value="Permission_File" style="shape=table;startSize=26;container=1;collapsible=1;childLayout=tableLayout;fontSize=14;fontFamily=Verdana;fillColor=#bac8d3;strokeColor=#23445d;fontStyle=0;swimlaneFillColor=#ffffff;shadow=0;comic=0;labelBackgroundColor=none;strokeWidth=1;rounded=1;columnLines=0;rowLines=0;swimlaneLine=0;sketch=0;fixedRows=0;resizeLast=0;resizeLastRow=0;swimlaneHead=0;swimlaneBody=0;top=1;bottom=1;left=1;right=1;" parent="1" vertex="1">
          <mxGeometry x="1070" y="348" width="300" height="200" as="geometry" />
        </mxCell>
        <mxCell id="vIAqwBNC-OFcZ53PO1-U-78" value="Id" style="shape=partialRectangle;top=0;left=0;right=0;bottom=1;html=1;align=left;verticalAlign=middle;fillColor=none;spacingLeft=34;spacingRight=4;whiteSpace=wrap;overflow=hidden;rotatable=0;points=[[0,0.5],[1,0.5]];portConstraint=eastwest;dropTarget=0;fontStyle=5;strokeColor=#909090;fontColor=#1A1A1A;rounded=1;" parent="vIAqwBNC-OFcZ53PO1-U-77" vertex="1">
          <mxGeometry y="26" width="300" height="31" as="geometry" />
        </mxCell>
        <mxCell id="vIAqwBNC-OFcZ53PO1-U-79" value="PK" style="shape=partialRectangle;top=0;left=0;bottom=0;html=1;fillColor=none;align=left;verticalAlign=middle;spacingLeft=4;spacingRight=4;whiteSpace=wrap;overflow=hidden;rotatable=0;points=[];portConstraint=eastwest;part=1;strokeColor=#909090;fontColor=#1A1A1A;rounded=1;" parent="vIAqwBNC-OFcZ53PO1-U-78" vertex="1" connectable="0">
          <mxGeometry width="160" height="31" as="geometry">
            <mxRectangle width="160" height="31" as="alternateBounds" />
          </mxGeometry>
        </mxCell>
        <mxCell id="YrgYbaN7kOxB59Jyv08Y-109" value="int" style="shape=partialRectangle;top=0;left=0;bottom=0;html=1;fillColor=none;align=left;verticalAlign=middle;spacingLeft=4;spacingRight=4;whiteSpace=wrap;overflow=hidden;rotatable=0;points=[];portConstraint=eastwest;part=1;strokeColor=#909090;fontColor=#1A1A1A;rounded=1;" parent="vIAqwBNC-OFcZ53PO1-U-78" vertex="1" connectable="0">
          <mxGeometry x="160" width="90" height="31" as="geometry">
            <mxRectangle width="90" height="31" as="alternateBounds" />
          </mxGeometry>
        </mxCell>
        <mxCell id="YrgYbaN7kOxB59Jyv08Y-116" value="&lt;span style=&quot;color: rgb(128, 128, 128);&quot;&gt;not null&lt;/span&gt;" style="shape=partialRectangle;top=0;left=0;bottom=0;html=1;fillColor=none;align=left;verticalAlign=middle;spacingLeft=4;spacingRight=4;whiteSpace=wrap;overflow=hidden;rotatable=0;points=[];portConstraint=eastwest;part=1;strokeColor=#909090;fontColor=#1A1A1A;rounded=1;" parent="vIAqwBNC-OFcZ53PO1-U-78" vertex="1" connectable="0">
          <mxGeometry x="250" width="50" height="31" as="geometry">
            <mxRectangle width="50" height="31" as="alternateBounds" />
          </mxGeometry>
        </mxCell>
        <mxCell id="vIAqwBNC-OFcZ53PO1-U-82" value="File_id" style="shape=partialRectangle;top=0;left=0;right=0;bottom=0;html=1;align=left;verticalAlign=middle;fillColor=none;spacingLeft=34;spacingRight=4;whiteSpace=wrap;overflow=hidden;rotatable=0;points=[[0,0.5],[1,0.5]];portConstraint=eastwest;dropTarget=0;strokeColor=#909090;fontColor=#1A1A1A;rounded=1;fontStyle=5;" parent="vIAqwBNC-OFcZ53PO1-U-77" vertex="1">
          <mxGeometry y="57" width="300" height="26" as="geometry" />
        </mxCell>
        <mxCell id="vIAqwBNC-OFcZ53PO1-U-83" value="&lt;font style=&quot;font-size: 11px;&quot;&gt;FK1&lt;/font&gt;" style="shape=partialRectangle;top=0;left=0;bottom=0;html=1;fillColor=none;align=left;verticalAlign=top;spacingLeft=4;spacingRight=4;whiteSpace=wrap;overflow=hidden;rotatable=0;points=[];portConstraint=eastwest;part=1;strokeColor=#909090;fontColor=#1A1A1A;rounded=1;" parent="vIAqwBNC-OFcZ53PO1-U-82" vertex="1" connectable="0">
          <mxGeometry width="160" height="26" as="geometry">
            <mxRectangle width="160" height="26" as="alternateBounds" />
          </mxGeometry>
        </mxCell>
        <mxCell id="YrgYbaN7kOxB59Jyv08Y-110" value="int" style="shape=partialRectangle;top=0;left=0;bottom=0;html=1;fillColor=none;align=left;verticalAlign=top;spacingLeft=4;spacingRight=4;whiteSpace=wrap;overflow=hidden;rotatable=0;points=[];portConstraint=eastwest;part=1;strokeColor=#909090;fontColor=#1A1A1A;rounded=1;" parent="vIAqwBNC-OFcZ53PO1-U-82" vertex="1" connectable="0">
          <mxGeometry x="160" width="90" height="26" as="geometry">
            <mxRectangle width="90" height="26" as="alternateBounds" />
          </mxGeometry>
        </mxCell>
        <mxCell id="YrgYbaN7kOxB59Jyv08Y-117" value="&lt;span style=&quot;color: rgb(128, 128, 128);&quot;&gt;not null&lt;/span&gt;" style="shape=partialRectangle;top=0;left=0;bottom=0;html=1;fillColor=none;align=left;verticalAlign=top;spacingLeft=4;spacingRight=4;whiteSpace=wrap;overflow=hidden;rotatable=0;points=[];portConstraint=eastwest;part=1;strokeColor=#909090;fontColor=#1A1A1A;rounded=1;" parent="vIAqwBNC-OFcZ53PO1-U-82" vertex="1" connectable="0">
          <mxGeometry x="250" width="50" height="26" as="geometry">
            <mxRectangle width="50" height="26" as="alternateBounds" />
          </mxGeometry>
        </mxCell>
        <mxCell id="vIAqwBNC-OFcZ53PO1-U-84" value="Permission_id" style="shape=partialRectangle;top=0;left=0;right=0;bottom=0;html=1;align=left;verticalAlign=middle;fillColor=none;spacingLeft=34;spacingRight=4;whiteSpace=wrap;overflow=hidden;rotatable=0;points=[[0,0.5],[1,0.5]];portConstraint=eastwest;dropTarget=0;strokeColor=#909090;fontColor=#1A1A1A;rounded=1;fontStyle=5;" parent="vIAqwBNC-OFcZ53PO1-U-77" vertex="1">
          <mxGeometry y="83" width="300" height="27" as="geometry" />
        </mxCell>
        <mxCell id="vIAqwBNC-OFcZ53PO1-U-85" value="FK2" style="shape=partialRectangle;top=0;left=0;bottom=0;html=1;fillColor=none;align=left;verticalAlign=top;spacingLeft=4;spacingRight=4;whiteSpace=wrap;overflow=hidden;rotatable=0;points=[];portConstraint=eastwest;part=1;strokeColor=#909090;fontColor=#1A1A1A;rounded=1;" parent="vIAqwBNC-OFcZ53PO1-U-84" vertex="1" connectable="0">
          <mxGeometry width="160" height="27" as="geometry">
            <mxRectangle width="160" height="27" as="alternateBounds" />
          </mxGeometry>
        </mxCell>
        <mxCell id="YrgYbaN7kOxB59Jyv08Y-111" value="int" style="shape=partialRectangle;top=0;left=0;bottom=0;html=1;fillColor=none;align=left;verticalAlign=top;spacingLeft=4;spacingRight=4;whiteSpace=wrap;overflow=hidden;rotatable=0;points=[];portConstraint=eastwest;part=1;strokeColor=#909090;fontColor=#1A1A1A;rounded=1;" parent="vIAqwBNC-OFcZ53PO1-U-84" vertex="1" connectable="0">
          <mxGeometry x="160" width="90" height="27" as="geometry">
            <mxRectangle width="90" height="27" as="alternateBounds" />
          </mxGeometry>
        </mxCell>
        <mxCell id="YrgYbaN7kOxB59Jyv08Y-118" value="&lt;span style=&quot;color: rgb(128, 128, 128);&quot;&gt;not null&lt;/span&gt;" style="shape=partialRectangle;top=0;left=0;bottom=0;html=1;fillColor=none;align=left;verticalAlign=top;spacingLeft=4;spacingRight=4;whiteSpace=wrap;overflow=hidden;rotatable=0;points=[];portConstraint=eastwest;part=1;strokeColor=#909090;fontColor=#1A1A1A;rounded=1;" parent="vIAqwBNC-OFcZ53PO1-U-84" vertex="1" connectable="0">
          <mxGeometry x="250" width="50" height="27" as="geometry">
            <mxRectangle width="50" height="27" as="alternateBounds" />
          </mxGeometry>
        </mxCell>
        <mxCell id="vIAqwBNC-OFcZ53PO1-U-86" value="User_id" style="shape=partialRectangle;top=0;left=0;right=0;bottom=0;html=1;align=left;verticalAlign=top;fillColor=none;spacingLeft=34;spacingRight=4;whiteSpace=wrap;overflow=hidden;rotatable=0;points=[[0,0.5],[1,0.5]];portConstraint=eastwest;dropTarget=0;strokeColor=#909090;fontColor=#1A1A1A;rounded=1;" parent="vIAqwBNC-OFcZ53PO1-U-77" vertex="1">
          <mxGeometry y="110" width="300" height="27" as="geometry" />
        </mxCell>
        <mxCell id="vIAqwBNC-OFcZ53PO1-U-87" value="" style="shape=partialRectangle;top=0;left=0;bottom=0;html=1;fillColor=none;align=left;verticalAlign=top;spacingLeft=4;spacingRight=4;whiteSpace=wrap;overflow=hidden;rotatable=0;points=[];portConstraint=eastwest;part=1;strokeColor=#909090;fontColor=#1A1A1A;rounded=1;" parent="vIAqwBNC-OFcZ53PO1-U-86" vertex="1" connectable="0">
          <mxGeometry width="160" height="27" as="geometry">
            <mxRectangle width="160" height="27" as="alternateBounds" />
          </mxGeometry>
        </mxCell>
        <mxCell id="YrgYbaN7kOxB59Jyv08Y-112" value="int" style="shape=partialRectangle;top=0;left=0;bottom=0;html=1;fillColor=none;align=left;verticalAlign=top;spacingLeft=4;spacingRight=4;whiteSpace=wrap;overflow=hidden;rotatable=0;points=[];portConstraint=eastwest;part=1;strokeColor=#909090;fontColor=#1A1A1A;rounded=1;" parent="vIAqwBNC-OFcZ53PO1-U-86" vertex="1" connectable="0">
          <mxGeometry x="160" width="90" height="27" as="geometry">
            <mxRectangle width="90" height="27" as="alternateBounds" />
          </mxGeometry>
        </mxCell>
        <mxCell id="YrgYbaN7kOxB59Jyv08Y-119" value="&lt;span style=&quot;color: rgb(128, 128, 128);&quot;&gt;null&lt;/span&gt;" style="shape=partialRectangle;top=0;left=0;bottom=0;html=1;fillColor=none;align=left;verticalAlign=top;spacingLeft=4;spacingRight=4;whiteSpace=wrap;overflow=hidden;rotatable=0;points=[];portConstraint=eastwest;part=1;strokeColor=#909090;fontColor=#1A1A1A;rounded=1;" parent="vIAqwBNC-OFcZ53PO1-U-86" vertex="1" connectable="0">
          <mxGeometry x="250" width="50" height="27" as="geometry">
            <mxRectangle width="50" height="27" as="alternateBounds" />
          </mxGeometry>
        </mxCell>
        <mxCell id="vIAqwBNC-OFcZ53PO1-U-88" value="Creation_date" style="shape=partialRectangle;top=0;left=0;right=0;bottom=0;html=1;align=left;verticalAlign=top;fillColor=none;spacingLeft=34;spacingRight=4;whiteSpace=wrap;overflow=hidden;rotatable=0;points=[[0,0.5],[1,0.5]];portConstraint=eastwest;dropTarget=0;strokeColor=#909090;fontColor=#1A1A1A;rounded=1;" parent="vIAqwBNC-OFcZ53PO1-U-77" vertex="1">
          <mxGeometry y="137" width="300" height="26" as="geometry" />
        </mxCell>
        <mxCell id="vIAqwBNC-OFcZ53PO1-U-89" value="" style="shape=partialRectangle;top=0;left=0;bottom=0;html=1;fillColor=none;align=left;verticalAlign=top;spacingLeft=4;spacingRight=4;whiteSpace=wrap;overflow=hidden;rotatable=0;points=[];portConstraint=eastwest;part=1;strokeColor=#909090;fontColor=#1A1A1A;rounded=1;" parent="vIAqwBNC-OFcZ53PO1-U-88" vertex="1" connectable="0">
          <mxGeometry width="160" height="26" as="geometry">
            <mxRectangle width="160" height="26" as="alternateBounds" />
          </mxGeometry>
        </mxCell>
        <mxCell id="YrgYbaN7kOxB59Jyv08Y-113" value="&lt;span style=&quot;&quot;&gt;datetime2(7)&lt;/span&gt;" style="shape=partialRectangle;top=0;left=0;bottom=0;html=1;fillColor=none;align=left;verticalAlign=top;spacingLeft=4;spacingRight=4;whiteSpace=wrap;overflow=hidden;rotatable=0;points=[];portConstraint=eastwest;part=1;strokeColor=#909090;fontColor=#1A1A1A;rounded=1;" parent="vIAqwBNC-OFcZ53PO1-U-88" vertex="1" connectable="0">
          <mxGeometry x="160" width="90" height="26" as="geometry">
            <mxRectangle width="90" height="26" as="alternateBounds" />
          </mxGeometry>
        </mxCell>
        <mxCell id="YrgYbaN7kOxB59Jyv08Y-120" value="&lt;span style=&quot;color: rgb(128, 128, 128);&quot;&gt;null&lt;/span&gt;" style="shape=partialRectangle;top=0;left=0;bottom=0;html=1;fillColor=none;align=left;verticalAlign=top;spacingLeft=4;spacingRight=4;whiteSpace=wrap;overflow=hidden;rotatable=0;points=[];portConstraint=eastwest;part=1;strokeColor=#909090;fontColor=#1A1A1A;rounded=1;" parent="vIAqwBNC-OFcZ53PO1-U-88" vertex="1" connectable="0">
          <mxGeometry x="250" width="50" height="26" as="geometry">
            <mxRectangle width="50" height="26" as="alternateBounds" />
          </mxGeometry>
        </mxCell>
        <mxCell id="vIAqwBNC-OFcZ53PO1-U-90" value="AssignedBy_Id" style="shape=partialRectangle;top=0;left=0;right=0;bottom=0;html=1;align=left;verticalAlign=top;fillColor=none;spacingLeft=34;spacingRight=4;whiteSpace=wrap;overflow=hidden;rotatable=0;points=[[0,0.5],[1,0.5]];portConstraint=eastwest;dropTarget=0;strokeColor=#909090;fontColor=#1A1A1A;rounded=1;" parent="vIAqwBNC-OFcZ53PO1-U-77" vertex="1">
          <mxGeometry y="163" width="300" height="27" as="geometry" />
        </mxCell>
        <mxCell id="vIAqwBNC-OFcZ53PO1-U-91" value="" style="shape=partialRectangle;top=0;left=0;bottom=0;html=1;fillColor=none;align=left;verticalAlign=top;spacingLeft=4;spacingRight=4;whiteSpace=wrap;overflow=hidden;rotatable=0;points=[];portConstraint=eastwest;part=1;strokeColor=#909090;fontColor=#1A1A1A;rounded=1;" parent="vIAqwBNC-OFcZ53PO1-U-90" vertex="1" connectable="0">
          <mxGeometry width="160" height="27" as="geometry">
            <mxRectangle width="160" height="27" as="alternateBounds" />
          </mxGeometry>
        </mxCell>
        <mxCell id="YrgYbaN7kOxB59Jyv08Y-114" value="int" style="shape=partialRectangle;top=0;left=0;bottom=0;html=1;fillColor=none;align=left;verticalAlign=top;spacingLeft=4;spacingRight=4;whiteSpace=wrap;overflow=hidden;rotatable=0;points=[];portConstraint=eastwest;part=1;strokeColor=#909090;fontColor=#1A1A1A;rounded=1;" parent="vIAqwBNC-OFcZ53PO1-U-90" vertex="1" connectable="0">
          <mxGeometry x="160" width="90" height="27" as="geometry">
            <mxRectangle width="90" height="27" as="alternateBounds" />
          </mxGeometry>
        </mxCell>
        <mxCell id="YrgYbaN7kOxB59Jyv08Y-121" value="&lt;span style=&quot;color: rgb(128, 128, 128);&quot;&gt;null&lt;/span&gt;" style="shape=partialRectangle;top=0;left=0;bottom=0;html=1;fillColor=none;align=left;verticalAlign=top;spacingLeft=4;spacingRight=4;whiteSpace=wrap;overflow=hidden;rotatable=0;points=[];portConstraint=eastwest;part=1;strokeColor=#909090;fontColor=#1A1A1A;rounded=1;" parent="vIAqwBNC-OFcZ53PO1-U-90" vertex="1" connectable="0">
          <mxGeometry x="250" width="50" height="27" as="geometry">
            <mxRectangle width="50" height="27" as="alternateBounds" />
          </mxGeometry>
        </mxCell>
        <mxCell id="vIAqwBNC-OFcZ53PO1-U-94" value="" style="shape=partialRectangle;top=0;left=0;right=0;bottom=0;html=1;align=left;verticalAlign=top;fillColor=none;spacingLeft=34;spacingRight=4;whiteSpace=wrap;overflow=hidden;rotatable=0;points=[[0,0.5],[1,0.5]];portConstraint=eastwest;dropTarget=0;strokeColor=#909090;fontColor=#1A1A1A;rounded=1;" parent="vIAqwBNC-OFcZ53PO1-U-77" vertex="1">
          <mxGeometry y="190" width="300" height="10" as="geometry" />
        </mxCell>
        <mxCell id="vIAqwBNC-OFcZ53PO1-U-95" value="" style="shape=partialRectangle;top=0;left=0;bottom=0;html=1;fillColor=none;align=left;verticalAlign=top;spacingLeft=4;spacingRight=4;whiteSpace=wrap;overflow=hidden;rotatable=0;points=[];portConstraint=eastwest;part=1;strokeColor=#909090;fontColor=#1A1A1A;rounded=1;" parent="vIAqwBNC-OFcZ53PO1-U-94" vertex="1" connectable="0">
          <mxGeometry width="160" height="10" as="geometry">
            <mxRectangle width="160" height="10" as="alternateBounds" />
          </mxGeometry>
        </mxCell>
        <mxCell id="YrgYbaN7kOxB59Jyv08Y-115" style="shape=partialRectangle;top=0;left=0;bottom=0;html=1;fillColor=none;align=left;verticalAlign=top;spacingLeft=4;spacingRight=4;whiteSpace=wrap;overflow=hidden;rotatable=0;points=[];portConstraint=eastwest;part=1;strokeColor=#909090;fontColor=#1A1A1A;rounded=1;" parent="vIAqwBNC-OFcZ53PO1-U-94" vertex="1" connectable="0">
          <mxGeometry x="160" width="90" height="10" as="geometry">
            <mxRectangle width="90" height="10" as="alternateBounds" />
          </mxGeometry>
        </mxCell>
        <mxCell id="YrgYbaN7kOxB59Jyv08Y-122" style="shape=partialRectangle;top=0;left=0;bottom=0;html=1;fillColor=none;align=left;verticalAlign=top;spacingLeft=4;spacingRight=4;whiteSpace=wrap;overflow=hidden;rotatable=0;points=[];portConstraint=eastwest;part=1;strokeColor=#909090;fontColor=#1A1A1A;rounded=1;" parent="vIAqwBNC-OFcZ53PO1-U-94" vertex="1" connectable="0">
          <mxGeometry x="250" width="50" height="10" as="geometry">
            <mxRectangle width="50" height="10" as="alternateBounds" />
          </mxGeometry>
        </mxCell>
        <mxCell id="vIAqwBNC-OFcZ53PO1-U-96" value="Permission_type" style="shape=table;startSize=26;container=1;collapsible=1;childLayout=tableLayout;fontSize=14;fontFamily=Verdana;fillColor=#bac8d3;strokeColor=#23445d;fontStyle=0;swimlaneFillColor=#ffffff;shadow=0;comic=0;labelBackgroundColor=none;strokeWidth=1;rounded=1;columnLines=0;rowLines=0;swimlaneLine=0;sketch=0;fixedRows=0;resizeLast=0;resizeLastRow=0;swimlaneHead=0;swimlaneBody=0;top=1;bottom=1;left=1;right=1;" parent="1" vertex="1">
          <mxGeometry x="1458" y="669" width="245" height="92" as="geometry" />
        </mxCell>
        <mxCell id="vIAqwBNC-OFcZ53PO1-U-97" value="Id" style="shape=partialRectangle;top=0;left=0;right=0;bottom=1;html=1;align=left;verticalAlign=middle;fillColor=none;spacingLeft=34;spacingRight=4;whiteSpace=wrap;overflow=hidden;rotatable=0;points=[[0,0.5],[1,0.5]];portConstraint=eastwest;dropTarget=0;fontStyle=5;strokeColor=#909090;fontColor=#1A1A1A;rounded=1;" parent="vIAqwBNC-OFcZ53PO1-U-96" vertex="1">
          <mxGeometry y="26" width="245" height="30" as="geometry" />
        </mxCell>
        <mxCell id="vIAqwBNC-OFcZ53PO1-U-98" value="PK" style="shape=partialRectangle;top=0;left=0;bottom=0;html=1;fillColor=none;align=left;verticalAlign=middle;spacingLeft=4;spacingRight=4;whiteSpace=wrap;overflow=hidden;rotatable=0;points=[];portConstraint=eastwest;part=1;strokeColor=#909090;fontColor=#1A1A1A;rounded=1;" parent="vIAqwBNC-OFcZ53PO1-U-97" vertex="1" connectable="0">
          <mxGeometry width="90" height="30" as="geometry">
            <mxRectangle width="90" height="30" as="alternateBounds" />
          </mxGeometry>
        </mxCell>
        <mxCell id="YrgYbaN7kOxB59Jyv08Y-336" value="int" style="shape=partialRectangle;top=0;left=0;bottom=0;html=1;fillColor=none;align=left;verticalAlign=middle;spacingLeft=4;spacingRight=4;whiteSpace=wrap;overflow=hidden;rotatable=0;points=[];portConstraint=eastwest;part=1;strokeColor=#909090;fontColor=#1A1A1A;rounded=1;" parent="vIAqwBNC-OFcZ53PO1-U-97" vertex="1" connectable="0">
          <mxGeometry x="90" width="100" height="30" as="geometry">
            <mxRectangle width="100" height="30" as="alternateBounds" />
          </mxGeometry>
        </mxCell>
        <mxCell id="YrgYbaN7kOxB59Jyv08Y-339" value="&lt;span style=&quot;color: rgb(128, 128, 128);&quot;&gt;not null&lt;/span&gt;" style="shape=partialRectangle;top=0;left=0;bottom=0;html=1;fillColor=none;align=left;verticalAlign=middle;spacingLeft=4;spacingRight=4;whiteSpace=wrap;overflow=hidden;rotatable=0;points=[];portConstraint=eastwest;part=1;strokeColor=#909090;fontColor=#1A1A1A;rounded=1;" parent="vIAqwBNC-OFcZ53PO1-U-97" vertex="1" connectable="0">
          <mxGeometry x="190" width="55" height="30" as="geometry">
            <mxRectangle width="55" height="30" as="alternateBounds" />
          </mxGeometry>
        </mxCell>
        <mxCell id="vIAqwBNC-OFcZ53PO1-U-99" value="Name" style="shape=partialRectangle;top=0;left=0;right=0;bottom=0;html=1;align=left;verticalAlign=top;fillColor=none;spacingLeft=34;spacingRight=4;whiteSpace=wrap;overflow=hidden;rotatable=0;points=[[0,0.5],[1,0.5]];portConstraint=eastwest;dropTarget=0;strokeColor=#909090;fontColor=#1A1A1A;rounded=1;" parent="vIAqwBNC-OFcZ53PO1-U-96" vertex="1">
          <mxGeometry y="56" width="245" height="26" as="geometry" />
        </mxCell>
        <mxCell id="vIAqwBNC-OFcZ53PO1-U-100" value="" style="shape=partialRectangle;top=0;left=0;bottom=0;html=1;fillColor=none;align=left;verticalAlign=top;spacingLeft=4;spacingRight=4;whiteSpace=wrap;overflow=hidden;rotatable=0;points=[];portConstraint=eastwest;part=1;strokeColor=#909090;fontColor=#1A1A1A;rounded=1;" parent="vIAqwBNC-OFcZ53PO1-U-99" vertex="1" connectable="0">
          <mxGeometry width="90" height="26" as="geometry">
            <mxRectangle width="90" height="26" as="alternateBounds" />
          </mxGeometry>
        </mxCell>
        <mxCell id="YrgYbaN7kOxB59Jyv08Y-337" value="&lt;span style=&quot;&quot;&gt;nvarchar(max)&lt;/span&gt;" style="shape=partialRectangle;top=0;left=0;bottom=0;html=1;fillColor=none;align=left;verticalAlign=top;spacingLeft=4;spacingRight=4;whiteSpace=wrap;overflow=hidden;rotatable=0;points=[];portConstraint=eastwest;part=1;strokeColor=#909090;fontColor=#1A1A1A;rounded=1;" parent="vIAqwBNC-OFcZ53PO1-U-99" vertex="1" connectable="0">
          <mxGeometry x="90" width="100" height="26" as="geometry">
            <mxRectangle width="100" height="26" as="alternateBounds" />
          </mxGeometry>
        </mxCell>
        <mxCell id="YrgYbaN7kOxB59Jyv08Y-340" value="&lt;span style=&quot;color: rgb(128, 128, 128);&quot;&gt;null&lt;/span&gt;" style="shape=partialRectangle;top=0;left=0;bottom=0;html=1;fillColor=none;align=left;verticalAlign=top;spacingLeft=4;spacingRight=4;whiteSpace=wrap;overflow=hidden;rotatable=0;points=[];portConstraint=eastwest;part=1;strokeColor=#909090;fontColor=#1A1A1A;rounded=1;" parent="vIAqwBNC-OFcZ53PO1-U-99" vertex="1" connectable="0">
          <mxGeometry x="190" width="55" height="26" as="geometry">
            <mxRectangle width="55" height="26" as="alternateBounds" />
          </mxGeometry>
        </mxCell>
        <mxCell id="vIAqwBNC-OFcZ53PO1-U-101" value="" style="shape=partialRectangle;top=0;left=0;right=0;bottom=0;html=1;align=left;verticalAlign=top;fillColor=none;spacingLeft=34;spacingRight=4;whiteSpace=wrap;overflow=hidden;rotatable=0;points=[[0,0.5],[1,0.5]];portConstraint=eastwest;dropTarget=0;strokeColor=#909090;fontColor=#1A1A1A;rounded=1;" parent="vIAqwBNC-OFcZ53PO1-U-96" vertex="1">
          <mxGeometry y="82" width="245" height="10" as="geometry" />
        </mxCell>
        <mxCell id="vIAqwBNC-OFcZ53PO1-U-102" value="" style="shape=partialRectangle;top=0;left=0;bottom=0;html=1;fillColor=none;align=left;verticalAlign=top;spacingLeft=4;spacingRight=4;whiteSpace=wrap;overflow=hidden;rotatable=0;points=[];portConstraint=eastwest;part=1;strokeColor=#909090;fontColor=#1A1A1A;rounded=1;" parent="vIAqwBNC-OFcZ53PO1-U-101" vertex="1" connectable="0">
          <mxGeometry width="90" height="10" as="geometry">
            <mxRectangle width="90" height="10" as="alternateBounds" />
          </mxGeometry>
        </mxCell>
        <mxCell id="YrgYbaN7kOxB59Jyv08Y-338" style="shape=partialRectangle;top=0;left=0;bottom=0;html=1;fillColor=none;align=left;verticalAlign=top;spacingLeft=4;spacingRight=4;whiteSpace=wrap;overflow=hidden;rotatable=0;points=[];portConstraint=eastwest;part=1;strokeColor=#909090;fontColor=#1A1A1A;rounded=1;" parent="vIAqwBNC-OFcZ53PO1-U-101" vertex="1" connectable="0">
          <mxGeometry x="90" width="100" height="10" as="geometry">
            <mxRectangle width="100" height="10" as="alternateBounds" />
          </mxGeometry>
        </mxCell>
        <mxCell id="YrgYbaN7kOxB59Jyv08Y-341" style="shape=partialRectangle;top=0;left=0;bottom=0;html=1;fillColor=none;align=left;verticalAlign=top;spacingLeft=4;spacingRight=4;whiteSpace=wrap;overflow=hidden;rotatable=0;points=[];portConstraint=eastwest;part=1;strokeColor=#909090;fontColor=#1A1A1A;rounded=1;" parent="vIAqwBNC-OFcZ53PO1-U-101" vertex="1" connectable="0">
          <mxGeometry x="190" width="55" height="10" as="geometry">
            <mxRectangle width="55" height="10" as="alternateBounds" />
          </mxGeometry>
        </mxCell>
        <mxCell id="vIAqwBNC-OFcZ53PO1-U-103" style="edgeStyle=orthogonalEdgeStyle;curved=0;rounded=1;sketch=0;orthogonalLoop=1;jettySize=auto;html=1;fontSize=11;fontColor=#1a1a1a;startArrow=ERmany;startFill=0;endArrow=oval;endFill=1;strokeColor=#CCCCCC;" parent="1" source="vIAqwBNC-OFcZ53PO1-U-84" target="vIAqwBNC-OFcZ53PO1-U-97" edge="1">
          <mxGeometry relative="1" as="geometry" />
        </mxCell>
        <mxCell id="vIAqwBNC-OFcZ53PO1-U-104" style="edgeStyle=orthogonalEdgeStyle;curved=0;rounded=1;sketch=0;orthogonalLoop=1;jettySize=auto;html=1;entryX=1;entryY=0.5;entryDx=0;entryDy=0;fontSize=11;fontColor=#1a1a1a;startArrow=ERmany;startFill=0;endArrow=oval;endFill=1;strokeColor=#5EB7FA;exitX=0;exitY=0.5;exitDx=0;exitDy=0;fillColor=#bac8d3;" parent="1" source="vIAqwBNC-OFcZ53PO1-U-82" target="2e49270ec7c68f3f-9" edge="1">
          <mxGeometry relative="1" as="geometry">
            <Array as="points">
              <mxPoint x="1030" y="417" />
              <mxPoint x="1030" y="40" />
              <mxPoint x="270" y="40" />
              <mxPoint x="270" y="490" />
              <mxPoint x="220" y="490" />
            </Array>
          </mxGeometry>
        </mxCell>
        <mxCell id="vIAqwBNC-OFcZ53PO1-U-120" value="Permission_Process" style="shape=table;startSize=26;container=1;collapsible=1;childLayout=tableLayout;fontSize=14;fontFamily=Verdana;fillColor=#bac8d3;strokeColor=#23445d;fontStyle=0;swimlaneFillColor=#ffffff;shadow=0;comic=0;labelBackgroundColor=none;strokeWidth=1;rounded=1;columnLines=0;rowLines=0;swimlaneLine=0;sketch=0;fixedRows=0;resizeLast=0;resizeLastRow=0;swimlaneHead=0;swimlaneBody=0;top=1;bottom=1;left=1;right=1;" parent="1" vertex="1">
          <mxGeometry x="1070" y="613" width="300" height="200" as="geometry" />
        </mxCell>
        <mxCell id="vIAqwBNC-OFcZ53PO1-U-121" value="Id" style="shape=partialRectangle;top=0;left=0;right=0;bottom=1;html=1;align=left;verticalAlign=middle;fillColor=none;spacingLeft=34;spacingRight=4;whiteSpace=wrap;overflow=hidden;rotatable=0;points=[[0,0.5],[1,0.5]];portConstraint=eastwest;dropTarget=0;fontStyle=5;strokeColor=#909090;fontColor=#1A1A1A;rounded=1;" parent="vIAqwBNC-OFcZ53PO1-U-120" vertex="1">
          <mxGeometry y="26" width="300" height="31" as="geometry" />
        </mxCell>
        <mxCell id="vIAqwBNC-OFcZ53PO1-U-122" value="PK" style="shape=partialRectangle;top=0;left=0;bottom=0;html=1;fillColor=none;align=left;verticalAlign=middle;spacingLeft=4;spacingRight=4;whiteSpace=wrap;overflow=hidden;rotatable=0;points=[];portConstraint=eastwest;part=1;strokeColor=#909090;fontColor=#1A1A1A;rounded=1;" parent="vIAqwBNC-OFcZ53PO1-U-121" vertex="1" connectable="0">
          <mxGeometry width="160" height="31" as="geometry">
            <mxRectangle width="160" height="31" as="alternateBounds" />
          </mxGeometry>
        </mxCell>
        <mxCell id="YrgYbaN7kOxB59Jyv08Y-151" value="int" style="shape=partialRectangle;top=0;left=0;bottom=0;html=1;fillColor=none;align=left;verticalAlign=middle;spacingLeft=4;spacingRight=4;whiteSpace=wrap;overflow=hidden;rotatable=0;points=[];portConstraint=eastwest;part=1;strokeColor=#909090;fontColor=#1A1A1A;rounded=1;" parent="vIAqwBNC-OFcZ53PO1-U-121" vertex="1" connectable="0">
          <mxGeometry x="160" width="90" height="31" as="geometry">
            <mxRectangle width="90" height="31" as="alternateBounds" />
          </mxGeometry>
        </mxCell>
        <mxCell id="YrgYbaN7kOxB59Jyv08Y-158" value="&lt;span style=&quot;color: rgb(128, 128, 128);&quot;&gt;not null&lt;/span&gt;" style="shape=partialRectangle;top=0;left=0;bottom=0;html=1;fillColor=none;align=left;verticalAlign=middle;spacingLeft=4;spacingRight=4;whiteSpace=wrap;overflow=hidden;rotatable=0;points=[];portConstraint=eastwest;part=1;strokeColor=#909090;fontColor=#1A1A1A;rounded=1;" parent="vIAqwBNC-OFcZ53PO1-U-121" vertex="1" connectable="0">
          <mxGeometry x="250" width="50" height="31" as="geometry">
            <mxRectangle width="50" height="31" as="alternateBounds" />
          </mxGeometry>
        </mxCell>
        <mxCell id="vIAqwBNC-OFcZ53PO1-U-123" value="Process_id" style="shape=partialRectangle;top=0;left=0;right=0;bottom=0;html=1;align=left;verticalAlign=middle;fillColor=none;spacingLeft=34;spacingRight=4;whiteSpace=wrap;overflow=hidden;rotatable=0;points=[[0,0.5],[1,0.5]];portConstraint=eastwest;dropTarget=0;strokeColor=#909090;fontColor=#1A1A1A;rounded=1;fontStyle=5;" parent="vIAqwBNC-OFcZ53PO1-U-120" vertex="1">
          <mxGeometry y="57" width="300" height="26" as="geometry" />
        </mxCell>
        <mxCell id="vIAqwBNC-OFcZ53PO1-U-124" value="&lt;font style=&quot;font-size: 11px;&quot;&gt;FK1&lt;/font&gt;" style="shape=partialRectangle;top=0;left=0;bottom=0;html=1;fillColor=none;align=left;verticalAlign=top;spacingLeft=4;spacingRight=4;whiteSpace=wrap;overflow=hidden;rotatable=0;points=[];portConstraint=eastwest;part=1;strokeColor=#909090;fontColor=#1A1A1A;rounded=1;" parent="vIAqwBNC-OFcZ53PO1-U-123" vertex="1" connectable="0">
          <mxGeometry width="160" height="26" as="geometry">
            <mxRectangle width="160" height="26" as="alternateBounds" />
          </mxGeometry>
        </mxCell>
        <mxCell id="YrgYbaN7kOxB59Jyv08Y-152" value="&lt;span style=&quot;&quot;&gt;int&lt;/span&gt;" style="shape=partialRectangle;top=0;left=0;bottom=0;html=1;fillColor=none;align=left;verticalAlign=top;spacingLeft=4;spacingRight=4;whiteSpace=wrap;overflow=hidden;rotatable=0;points=[];portConstraint=eastwest;part=1;strokeColor=#909090;fontColor=#1A1A1A;rounded=1;" parent="vIAqwBNC-OFcZ53PO1-U-123" vertex="1" connectable="0">
          <mxGeometry x="160" width="90" height="26" as="geometry">
            <mxRectangle width="90" height="26" as="alternateBounds" />
          </mxGeometry>
        </mxCell>
        <mxCell id="YrgYbaN7kOxB59Jyv08Y-159" value="&lt;span style=&quot;color: rgb(128, 128, 128);&quot;&gt;not null&lt;/span&gt;" style="shape=partialRectangle;top=0;left=0;bottom=0;html=1;fillColor=none;align=left;verticalAlign=top;spacingLeft=4;spacingRight=4;whiteSpace=wrap;overflow=hidden;rotatable=0;points=[];portConstraint=eastwest;part=1;strokeColor=#909090;fontColor=#1A1A1A;rounded=1;" parent="vIAqwBNC-OFcZ53PO1-U-123" vertex="1" connectable="0">
          <mxGeometry x="250" width="50" height="26" as="geometry">
            <mxRectangle width="50" height="26" as="alternateBounds" />
          </mxGeometry>
        </mxCell>
        <mxCell id="vIAqwBNC-OFcZ53PO1-U-125" value="Permission_id" style="shape=partialRectangle;top=0;left=0;right=0;bottom=0;html=1;align=left;verticalAlign=middle;fillColor=none;spacingLeft=34;spacingRight=4;whiteSpace=wrap;overflow=hidden;rotatable=0;points=[[0,0.5],[1,0.5]];portConstraint=eastwest;dropTarget=0;strokeColor=#909090;fontColor=#1A1A1A;rounded=1;fontStyle=5;" parent="vIAqwBNC-OFcZ53PO1-U-120" vertex="1">
          <mxGeometry y="83" width="300" height="27" as="geometry" />
        </mxCell>
        <mxCell id="vIAqwBNC-OFcZ53PO1-U-126" value="FK2" style="shape=partialRectangle;top=0;left=0;bottom=0;html=1;fillColor=none;align=left;verticalAlign=top;spacingLeft=4;spacingRight=4;whiteSpace=wrap;overflow=hidden;rotatable=0;points=[];portConstraint=eastwest;part=1;strokeColor=#909090;fontColor=#1A1A1A;rounded=1;" parent="vIAqwBNC-OFcZ53PO1-U-125" vertex="1" connectable="0">
          <mxGeometry width="160" height="27" as="geometry">
            <mxRectangle width="160" height="27" as="alternateBounds" />
          </mxGeometry>
        </mxCell>
        <mxCell id="YrgYbaN7kOxB59Jyv08Y-153" value="&lt;span style=&quot;&quot;&gt;int&lt;/span&gt;" style="shape=partialRectangle;top=0;left=0;bottom=0;html=1;fillColor=none;align=left;verticalAlign=top;spacingLeft=4;spacingRight=4;whiteSpace=wrap;overflow=hidden;rotatable=0;points=[];portConstraint=eastwest;part=1;strokeColor=#909090;fontColor=#1A1A1A;rounded=1;" parent="vIAqwBNC-OFcZ53PO1-U-125" vertex="1" connectable="0">
          <mxGeometry x="160" width="90" height="27" as="geometry">
            <mxRectangle width="90" height="27" as="alternateBounds" />
          </mxGeometry>
        </mxCell>
        <mxCell id="YrgYbaN7kOxB59Jyv08Y-160" value="&lt;span style=&quot;color: rgb(128, 128, 128);&quot;&gt;not null&lt;/span&gt;" style="shape=partialRectangle;top=0;left=0;bottom=0;html=1;fillColor=none;align=left;verticalAlign=top;spacingLeft=4;spacingRight=4;whiteSpace=wrap;overflow=hidden;rotatable=0;points=[];portConstraint=eastwest;part=1;strokeColor=#909090;fontColor=#1A1A1A;rounded=1;" parent="vIAqwBNC-OFcZ53PO1-U-125" vertex="1" connectable="0">
          <mxGeometry x="250" width="50" height="27" as="geometry">
            <mxRectangle width="50" height="27" as="alternateBounds" />
          </mxGeometry>
        </mxCell>
        <mxCell id="vIAqwBNC-OFcZ53PO1-U-127" value="User_id" style="shape=partialRectangle;top=0;left=0;right=0;bottom=0;html=1;align=left;verticalAlign=top;fillColor=none;spacingLeft=34;spacingRight=4;whiteSpace=wrap;overflow=hidden;rotatable=0;points=[[0,0.5],[1,0.5]];portConstraint=eastwest;dropTarget=0;strokeColor=#909090;fontColor=#1A1A1A;rounded=1;" parent="vIAqwBNC-OFcZ53PO1-U-120" vertex="1">
          <mxGeometry y="110" width="300" height="27" as="geometry" />
        </mxCell>
        <mxCell id="vIAqwBNC-OFcZ53PO1-U-128" value="" style="shape=partialRectangle;top=0;left=0;bottom=0;html=1;fillColor=none;align=left;verticalAlign=top;spacingLeft=4;spacingRight=4;whiteSpace=wrap;overflow=hidden;rotatable=0;points=[];portConstraint=eastwest;part=1;strokeColor=#909090;fontColor=#1A1A1A;rounded=1;" parent="vIAqwBNC-OFcZ53PO1-U-127" vertex="1" connectable="0">
          <mxGeometry width="160" height="27" as="geometry">
            <mxRectangle width="160" height="27" as="alternateBounds" />
          </mxGeometry>
        </mxCell>
        <mxCell id="YrgYbaN7kOxB59Jyv08Y-154" value="&lt;span style=&quot;&quot;&gt;int&lt;/span&gt;" style="shape=partialRectangle;top=0;left=0;bottom=0;html=1;fillColor=none;align=left;verticalAlign=top;spacingLeft=4;spacingRight=4;whiteSpace=wrap;overflow=hidden;rotatable=0;points=[];portConstraint=eastwest;part=1;strokeColor=#909090;fontColor=#1A1A1A;rounded=1;" parent="vIAqwBNC-OFcZ53PO1-U-127" vertex="1" connectable="0">
          <mxGeometry x="160" width="90" height="27" as="geometry">
            <mxRectangle width="90" height="27" as="alternateBounds" />
          </mxGeometry>
        </mxCell>
        <mxCell id="YrgYbaN7kOxB59Jyv08Y-161" value="&lt;span style=&quot;color: rgb(128, 128, 128);&quot;&gt;null&lt;/span&gt;" style="shape=partialRectangle;top=0;left=0;bottom=0;html=1;fillColor=none;align=left;verticalAlign=top;spacingLeft=4;spacingRight=4;whiteSpace=wrap;overflow=hidden;rotatable=0;points=[];portConstraint=eastwest;part=1;strokeColor=#909090;fontColor=#1A1A1A;rounded=1;" parent="vIAqwBNC-OFcZ53PO1-U-127" vertex="1" connectable="0">
          <mxGeometry x="250" width="50" height="27" as="geometry">
            <mxRectangle width="50" height="27" as="alternateBounds" />
          </mxGeometry>
        </mxCell>
        <mxCell id="vIAqwBNC-OFcZ53PO1-U-129" value="Creation_date" style="shape=partialRectangle;top=0;left=0;right=0;bottom=0;html=1;align=left;verticalAlign=top;fillColor=none;spacingLeft=34;spacingRight=4;whiteSpace=wrap;overflow=hidden;rotatable=0;points=[[0,0.5],[1,0.5]];portConstraint=eastwest;dropTarget=0;strokeColor=#909090;fontColor=#1A1A1A;rounded=1;" parent="vIAqwBNC-OFcZ53PO1-U-120" vertex="1">
          <mxGeometry y="137" width="300" height="26" as="geometry" />
        </mxCell>
        <mxCell id="vIAqwBNC-OFcZ53PO1-U-130" value="" style="shape=partialRectangle;top=0;left=0;bottom=0;html=1;fillColor=none;align=left;verticalAlign=top;spacingLeft=4;spacingRight=4;whiteSpace=wrap;overflow=hidden;rotatable=0;points=[];portConstraint=eastwest;part=1;strokeColor=#909090;fontColor=#1A1A1A;rounded=1;" parent="vIAqwBNC-OFcZ53PO1-U-129" vertex="1" connectable="0">
          <mxGeometry width="160" height="26" as="geometry">
            <mxRectangle width="160" height="26" as="alternateBounds" />
          </mxGeometry>
        </mxCell>
        <mxCell id="YrgYbaN7kOxB59Jyv08Y-155" value="&lt;span style=&quot;&quot;&gt;datetime2(7)&lt;/span&gt;" style="shape=partialRectangle;top=0;left=0;bottom=0;html=1;fillColor=none;align=left;verticalAlign=top;spacingLeft=4;spacingRight=4;whiteSpace=wrap;overflow=hidden;rotatable=0;points=[];portConstraint=eastwest;part=1;strokeColor=#909090;fontColor=#1A1A1A;rounded=1;" parent="vIAqwBNC-OFcZ53PO1-U-129" vertex="1" connectable="0">
          <mxGeometry x="160" width="90" height="26" as="geometry">
            <mxRectangle width="90" height="26" as="alternateBounds" />
          </mxGeometry>
        </mxCell>
        <mxCell id="YrgYbaN7kOxB59Jyv08Y-162" value="&lt;span style=&quot;color: rgb(128, 128, 128);&quot;&gt;null&lt;/span&gt;" style="shape=partialRectangle;top=0;left=0;bottom=0;html=1;fillColor=none;align=left;verticalAlign=top;spacingLeft=4;spacingRight=4;whiteSpace=wrap;overflow=hidden;rotatable=0;points=[];portConstraint=eastwest;part=1;strokeColor=#909090;fontColor=#1A1A1A;rounded=1;" parent="vIAqwBNC-OFcZ53PO1-U-129" vertex="1" connectable="0">
          <mxGeometry x="250" width="50" height="26" as="geometry">
            <mxRectangle width="50" height="26" as="alternateBounds" />
          </mxGeometry>
        </mxCell>
        <mxCell id="vIAqwBNC-OFcZ53PO1-U-131" value="AssignedBy_Id" style="shape=partialRectangle;top=0;left=0;right=0;bottom=0;html=1;align=left;verticalAlign=top;fillColor=none;spacingLeft=34;spacingRight=4;whiteSpace=wrap;overflow=hidden;rotatable=0;points=[[0,0.5],[1,0.5]];portConstraint=eastwest;dropTarget=0;strokeColor=#909090;fontColor=#1A1A1A;rounded=1;" parent="vIAqwBNC-OFcZ53PO1-U-120" vertex="1">
          <mxGeometry y="163" width="300" height="27" as="geometry" />
        </mxCell>
        <mxCell id="vIAqwBNC-OFcZ53PO1-U-132" value="" style="shape=partialRectangle;top=0;left=0;bottom=0;html=1;fillColor=none;align=left;verticalAlign=top;spacingLeft=4;spacingRight=4;whiteSpace=wrap;overflow=hidden;rotatable=0;points=[];portConstraint=eastwest;part=1;strokeColor=#909090;fontColor=#1A1A1A;rounded=1;" parent="vIAqwBNC-OFcZ53PO1-U-131" vertex="1" connectable="0">
          <mxGeometry width="160" height="27" as="geometry">
            <mxRectangle width="160" height="27" as="alternateBounds" />
          </mxGeometry>
        </mxCell>
        <mxCell id="YrgYbaN7kOxB59Jyv08Y-156" value="&lt;span style=&quot;&quot;&gt;int&lt;/span&gt;" style="shape=partialRectangle;top=0;left=0;bottom=0;html=1;fillColor=none;align=left;verticalAlign=top;spacingLeft=4;spacingRight=4;whiteSpace=wrap;overflow=hidden;rotatable=0;points=[];portConstraint=eastwest;part=1;strokeColor=#909090;fontColor=#1A1A1A;rounded=1;" parent="vIAqwBNC-OFcZ53PO1-U-131" vertex="1" connectable="0">
          <mxGeometry x="160" width="90" height="27" as="geometry">
            <mxRectangle width="90" height="27" as="alternateBounds" />
          </mxGeometry>
        </mxCell>
        <mxCell id="YrgYbaN7kOxB59Jyv08Y-163" value="&lt;span style=&quot;color: rgb(128, 128, 128);&quot;&gt;null&lt;/span&gt;" style="shape=partialRectangle;top=0;left=0;bottom=0;html=1;fillColor=none;align=left;verticalAlign=top;spacingLeft=4;spacingRight=4;whiteSpace=wrap;overflow=hidden;rotatable=0;points=[];portConstraint=eastwest;part=1;strokeColor=#909090;fontColor=#1A1A1A;rounded=1;" parent="vIAqwBNC-OFcZ53PO1-U-131" vertex="1" connectable="0">
          <mxGeometry x="250" width="50" height="27" as="geometry">
            <mxRectangle width="50" height="27" as="alternateBounds" />
          </mxGeometry>
        </mxCell>
        <mxCell id="vIAqwBNC-OFcZ53PO1-U-133" value="" style="shape=partialRectangle;top=0;left=0;right=0;bottom=0;html=1;align=left;verticalAlign=top;fillColor=none;spacingLeft=34;spacingRight=4;whiteSpace=wrap;overflow=hidden;rotatable=0;points=[[0,0.5],[1,0.5]];portConstraint=eastwest;dropTarget=0;strokeColor=#909090;fontColor=#1A1A1A;rounded=1;" parent="vIAqwBNC-OFcZ53PO1-U-120" vertex="1">
          <mxGeometry y="190" width="300" height="10" as="geometry" />
        </mxCell>
        <mxCell id="vIAqwBNC-OFcZ53PO1-U-134" value="" style="shape=partialRectangle;top=0;left=0;bottom=0;html=1;fillColor=none;align=left;verticalAlign=top;spacingLeft=4;spacingRight=4;whiteSpace=wrap;overflow=hidden;rotatable=0;points=[];portConstraint=eastwest;part=1;strokeColor=#909090;fontColor=#1A1A1A;rounded=1;" parent="vIAqwBNC-OFcZ53PO1-U-133" vertex="1" connectable="0">
          <mxGeometry width="160" height="10" as="geometry">
            <mxRectangle width="160" height="10" as="alternateBounds" />
          </mxGeometry>
        </mxCell>
        <mxCell id="YrgYbaN7kOxB59Jyv08Y-157" style="shape=partialRectangle;top=0;left=0;bottom=0;html=1;fillColor=none;align=left;verticalAlign=top;spacingLeft=4;spacingRight=4;whiteSpace=wrap;overflow=hidden;rotatable=0;points=[];portConstraint=eastwest;part=1;strokeColor=#909090;fontColor=#1A1A1A;rounded=1;" parent="vIAqwBNC-OFcZ53PO1-U-133" vertex="1" connectable="0">
          <mxGeometry x="160" width="90" height="10" as="geometry">
            <mxRectangle width="90" height="10" as="alternateBounds" />
          </mxGeometry>
        </mxCell>
        <mxCell id="YrgYbaN7kOxB59Jyv08Y-164" style="shape=partialRectangle;top=0;left=0;bottom=0;html=1;fillColor=none;align=left;verticalAlign=top;spacingLeft=4;spacingRight=4;whiteSpace=wrap;overflow=hidden;rotatable=0;points=[];portConstraint=eastwest;part=1;strokeColor=#909090;fontColor=#1A1A1A;rounded=1;" parent="vIAqwBNC-OFcZ53PO1-U-133" vertex="1" connectable="0">
          <mxGeometry x="250" width="50" height="10" as="geometry">
            <mxRectangle width="50" height="10" as="alternateBounds" />
          </mxGeometry>
        </mxCell>
        <mxCell id="vIAqwBNC-OFcZ53PO1-U-137" style="edgeStyle=orthogonalEdgeStyle;curved=0;rounded=1;sketch=0;orthogonalLoop=1;jettySize=auto;html=1;fontSize=11;fontColor=#1a1a1a;startArrow=ERmany;startFill=0;endArrow=oval;endFill=1;strokeColor=#5EB7FA;" parent="1" source="vIAqwBNC-OFcZ53PO1-U-123" target="2e49270ec7c68f3f-81" edge="1">
          <mxGeometry relative="1" as="geometry" />
        </mxCell>
        <mxCell id="vIAqwBNC-OFcZ53PO1-U-138" style="edgeStyle=orthogonalEdgeStyle;curved=0;rounded=1;sketch=0;orthogonalLoop=1;jettySize=auto;html=1;entryX=1;entryY=0.5;entryDx=0;entryDy=0;fontSize=11;fontColor=#1a1a1a;startArrow=ERmany;startFill=0;endArrow=oval;endFill=1;strokeColor=#5EB7FA;" parent="1" source="YrgYbaN7kOxB59Jyv08Y-332" target="2e49270ec7c68f3f-20" edge="1">
          <mxGeometry relative="1" as="geometry">
            <mxPoint x="1076" y="1017" as="sourcePoint" />
          </mxGeometry>
        </mxCell>
        <mxCell id="vIAqwBNC-OFcZ53PO1-U-144" style="edgeStyle=orthogonalEdgeStyle;curved=0;rounded=1;sketch=0;orthogonalLoop=1;jettySize=auto;html=1;exitX=0;exitY=0.5;exitDx=0;exitDy=0;entryX=1;entryY=0.5;entryDx=0;entryDy=0;fontSize=11;fontColor=#1a1a1a;startArrow=oval;startFill=1;endArrow=oval;endFill=1;strokeColor=#99CCFF;" parent="1" source="2e49270ec7c68f3f-81" target="2e49270ec7c68f3f-15" edge="1">
          <mxGeometry relative="1" as="geometry" />
        </mxCell>
        <mxCell id="vIAqwBNC-OFcZ53PO1-U-148" style="edgeStyle=orthogonalEdgeStyle;curved=0;rounded=1;sketch=0;orthogonalLoop=1;jettySize=auto;html=1;entryX=0;entryY=0.5;entryDx=0;entryDy=0;fontSize=11;fontColor=#1a1a1a;startArrow=ERmany;startFill=0;endArrow=oval;endFill=1;strokeColor=#CCCCCC;" parent="1" source="vIAqwBNC-OFcZ53PO1-U-125" target="vIAqwBNC-OFcZ53PO1-U-97" edge="1">
          <mxGeometry relative="1" as="geometry" />
        </mxCell>
        <mxCell id="vIAqwBNC-OFcZ53PO1-U-149" style="edgeStyle=orthogonalEdgeStyle;curved=0;rounded=1;sketch=0;orthogonalLoop=1;jettySize=auto;html=1;fontSize=11;fontColor=#1a1a1a;startArrow=ERmany;startFill=0;endArrow=oval;endFill=1;strokeColor=#CCCCCC;entryX=0;entryY=0.5;entryDx=0;entryDy=0;exitX=1;exitY=0.259;exitDx=0;exitDy=0;exitPerimeter=0;" parent="1" source="YrgYbaN7kOxB59Jyv08Y-230" target="vIAqwBNC-OFcZ53PO1-U-97" edge="1">
          <mxGeometry relative="1" as="geometry">
            <mxPoint x="1450" y="588" as="targetPoint" />
            <mxPoint x="1230" y="957" as="sourcePoint" />
          </mxGeometry>
        </mxCell>
        <mxCell id="vIAqwBNC-OFcZ53PO1-U-150" style="edgeStyle=orthogonalEdgeStyle;curved=0;rounded=1;sketch=0;orthogonalLoop=1;jettySize=auto;html=1;fontSize=11;fontColor=#1a1a1a;startArrow=ERmany;startFill=0;endArrow=oval;endFill=1;strokeColor=#99FF99;" parent="1" source="vIAqwBNC-OFcZ53PO1-U-19" target="2e49270ec7c68f3f-9" edge="1">
          <mxGeometry relative="1" as="geometry">
            <mxPoint x="225" y="404" as="targetPoint" />
            <Array as="points">
              <mxPoint x="320" y="161" />
              <mxPoint x="320" y="500" />
            </Array>
          </mxGeometry>
        </mxCell>
        <mxCell id="vIAqwBNC-OFcZ53PO1-U-151" style="edgeStyle=orthogonalEdgeStyle;curved=0;rounded=1;sketch=0;orthogonalLoop=1;jettySize=auto;html=1;entryX=0;entryY=0.5;entryDx=0;entryDy=0;fontSize=11;fontColor=#1a1a1a;startArrow=ERmany;startFill=0;endArrow=oval;endFill=1;strokeColor=#99FF99;" parent="1" source="vIAqwBNC-OFcZ53PO1-U-15" target="vIAqwBNC-OFcZ53PO1-U-22" edge="1">
          <mxGeometry relative="1" as="geometry" />
        </mxCell>
        <mxCell id="u99S6DrkX_AL05c81lDD-1" style="edgeStyle=orthogonalEdgeStyle;curved=0;rounded=1;sketch=0;orthogonalLoop=1;jettySize=auto;html=1;entryX=1;entryY=0.5;entryDx=0;entryDy=0;fontSize=11;fontColor=#1a1a1a;startArrow=ERmany;startFill=0;endArrow=oval;endFill=1;strokeColor=#FFCCCC;" parent="1" source="2e49270ec7c68f3f-20" target="2e49270ec7c68f3f-11" edge="1">
          <mxGeometry relative="1" as="geometry">
            <Array as="points">
              <mxPoint x="233" y="1033" />
              <mxPoint x="233" y="553" />
            </Array>
          </mxGeometry>
        </mxCell>
        <mxCell id="YrgYbaN7kOxB59Jyv08Y-221" value="Permission_Category" style="shape=table;startSize=26;container=1;collapsible=1;childLayout=tableLayout;fontSize=14;fontFamily=Verdana;fillColor=#bac8d3;strokeColor=#23445d;fontStyle=0;swimlaneFillColor=#ffffff;shadow=0;comic=0;labelBackgroundColor=none;strokeWidth=1;rounded=1;columnLines=0;rowLines=0;swimlaneLine=0;sketch=0;fixedRows=0;resizeLast=0;resizeLastRow=0;swimlaneHead=0;swimlaneBody=0;top=1;bottom=1;left=1;right=1;" parent="1" vertex="1">
          <mxGeometry x="1070" y="894" width="300" height="205" as="geometry" />
        </mxCell>
        <mxCell id="YrgYbaN7kOxB59Jyv08Y-222" value="Id" style="shape=partialRectangle;top=0;left=0;right=0;bottom=1;html=1;align=left;verticalAlign=middle;fillColor=none;spacingLeft=34;spacingRight=4;whiteSpace=wrap;overflow=hidden;rotatable=0;points=[[0,0.5],[1,0.5]];portConstraint=eastwest;dropTarget=0;fontStyle=5;strokeColor=#909090;fontColor=#1A1A1A;rounded=1;" parent="YrgYbaN7kOxB59Jyv08Y-221" vertex="1">
          <mxGeometry y="26" width="300" height="31" as="geometry" />
        </mxCell>
        <mxCell id="YrgYbaN7kOxB59Jyv08Y-223" value="PK" style="shape=partialRectangle;top=0;left=0;bottom=0;html=1;fillColor=none;align=left;verticalAlign=middle;spacingLeft=4;spacingRight=4;whiteSpace=wrap;overflow=hidden;rotatable=0;points=[];portConstraint=eastwest;part=1;strokeColor=#909090;fontColor=#1A1A1A;rounded=1;" parent="YrgYbaN7kOxB59Jyv08Y-222" vertex="1" connectable="0">
          <mxGeometry width="160" height="31" as="geometry">
            <mxRectangle width="160" height="31" as="alternateBounds" />
          </mxGeometry>
        </mxCell>
        <mxCell id="YrgYbaN7kOxB59Jyv08Y-224" value="int" style="shape=partialRectangle;top=0;left=0;bottom=0;html=1;fillColor=none;align=left;verticalAlign=middle;spacingLeft=4;spacingRight=4;whiteSpace=wrap;overflow=hidden;rotatable=0;points=[];portConstraint=eastwest;part=1;strokeColor=#909090;fontColor=#1A1A1A;rounded=1;" parent="YrgYbaN7kOxB59Jyv08Y-222" vertex="1" connectable="0">
          <mxGeometry x="160" width="90" height="31" as="geometry">
            <mxRectangle width="90" height="31" as="alternateBounds" />
          </mxGeometry>
        </mxCell>
        <mxCell id="YrgYbaN7kOxB59Jyv08Y-225" value="&lt;span style=&quot;color: rgb(128, 128, 128);&quot;&gt;not null&lt;/span&gt;" style="shape=partialRectangle;top=0;left=0;bottom=0;html=1;fillColor=none;align=left;verticalAlign=middle;spacingLeft=4;spacingRight=4;whiteSpace=wrap;overflow=hidden;rotatable=0;points=[];portConstraint=eastwest;part=1;strokeColor=#909090;fontColor=#1A1A1A;rounded=1;" parent="YrgYbaN7kOxB59Jyv08Y-222" vertex="1" connectable="0">
          <mxGeometry x="250" width="50" height="31" as="geometry">
            <mxRectangle width="50" height="31" as="alternateBounds" />
          </mxGeometry>
        </mxCell>
        <mxCell id="YrgYbaN7kOxB59Jyv08Y-230" value="Permission_id" style="shape=partialRectangle;top=0;left=0;right=0;bottom=0;html=1;align=left;verticalAlign=middle;fillColor=none;spacingLeft=34;spacingRight=4;whiteSpace=wrap;overflow=hidden;rotatable=0;points=[[0,0.5],[1,0.5]];portConstraint=eastwest;dropTarget=0;strokeColor=#909090;fontColor=#1A1A1A;rounded=1;fontStyle=5;" parent="YrgYbaN7kOxB59Jyv08Y-221" vertex="1">
          <mxGeometry y="57" width="300" height="27" as="geometry" />
        </mxCell>
        <mxCell id="YrgYbaN7kOxB59Jyv08Y-231" value="FK2" style="shape=partialRectangle;top=0;left=0;bottom=0;html=1;fillColor=none;align=left;verticalAlign=top;spacingLeft=4;spacingRight=4;whiteSpace=wrap;overflow=hidden;rotatable=0;points=[];portConstraint=eastwest;part=1;strokeColor=#909090;fontColor=#1A1A1A;rounded=1;" parent="YrgYbaN7kOxB59Jyv08Y-230" vertex="1" connectable="0">
          <mxGeometry width="160" height="27" as="geometry">
            <mxRectangle width="160" height="27" as="alternateBounds" />
          </mxGeometry>
        </mxCell>
        <mxCell id="YrgYbaN7kOxB59Jyv08Y-232" value="&lt;span style=&quot;&quot;&gt;int&lt;/span&gt;" style="shape=partialRectangle;top=0;left=0;bottom=0;html=1;fillColor=none;align=left;verticalAlign=top;spacingLeft=4;spacingRight=4;whiteSpace=wrap;overflow=hidden;rotatable=0;points=[];portConstraint=eastwest;part=1;strokeColor=#909090;fontColor=#1A1A1A;rounded=1;" parent="YrgYbaN7kOxB59Jyv08Y-230" vertex="1" connectable="0">
          <mxGeometry x="160" width="90" height="27" as="geometry">
            <mxRectangle width="90" height="27" as="alternateBounds" />
          </mxGeometry>
        </mxCell>
        <mxCell id="YrgYbaN7kOxB59Jyv08Y-233" value="&lt;span style=&quot;color: rgb(128, 128, 128);&quot;&gt;not null&lt;/span&gt;" style="shape=partialRectangle;top=0;left=0;bottom=0;html=1;fillColor=none;align=left;verticalAlign=top;spacingLeft=4;spacingRight=4;whiteSpace=wrap;overflow=hidden;rotatable=0;points=[];portConstraint=eastwest;part=1;strokeColor=#909090;fontColor=#1A1A1A;rounded=1;" parent="YrgYbaN7kOxB59Jyv08Y-230" vertex="1" connectable="0">
          <mxGeometry x="250" width="50" height="27" as="geometry">
            <mxRectangle width="50" height="27" as="alternateBounds" />
          </mxGeometry>
        </mxCell>
        <mxCell id="YrgYbaN7kOxB59Jyv08Y-332" style="shape=partialRectangle;top=0;left=0;right=0;bottom=0;html=1;align=left;verticalAlign=middle;fillColor=none;spacingLeft=34;spacingRight=4;whiteSpace=wrap;overflow=hidden;rotatable=0;points=[[0,0.5],[1,0.5]];portConstraint=eastwest;dropTarget=0;fontStyle=5;strokeColor=#909090;fontColor=#1A1A1A;rounded=1;" parent="YrgYbaN7kOxB59Jyv08Y-221" vertex="1">
          <mxGeometry y="84" width="300" height="31" as="geometry" />
        </mxCell>
        <mxCell id="YrgYbaN7kOxB59Jyv08Y-333" value="FK2&lt;span style=&quot;white-space: pre;&quot;&gt; &lt;/span&gt;&amp;nbsp;&lt;b&gt;&lt;u&gt;Category_id&lt;/u&gt;&lt;/b&gt;" style="shape=partialRectangle;top=0;left=0;bottom=0;html=1;fillColor=none;align=left;verticalAlign=middle;spacingLeft=4;spacingRight=4;whiteSpace=wrap;overflow=hidden;rotatable=0;points=[];portConstraint=eastwest;part=1;strokeColor=#909090;fontColor=#1A1A1A;rounded=1;right=1;" parent="YrgYbaN7kOxB59Jyv08Y-332" vertex="1" connectable="0">
          <mxGeometry width="160" height="31" as="geometry">
            <mxRectangle width="160" height="31" as="alternateBounds" />
          </mxGeometry>
        </mxCell>
        <mxCell id="YrgYbaN7kOxB59Jyv08Y-334" value="int" style="shape=partialRectangle;top=0;left=0;bottom=0;html=1;fillColor=none;align=left;verticalAlign=middle;spacingLeft=4;spacingRight=4;whiteSpace=wrap;overflow=hidden;rotatable=0;points=[];portConstraint=eastwest;part=1;strokeColor=#909090;fontColor=#1A1A1A;rounded=1;" parent="YrgYbaN7kOxB59Jyv08Y-332" vertex="1" connectable="0">
          <mxGeometry x="160" width="90" height="31" as="geometry">
            <mxRectangle width="90" height="31" as="alternateBounds" />
          </mxGeometry>
        </mxCell>
        <mxCell id="YrgYbaN7kOxB59Jyv08Y-335" value="&lt;span style=&quot;color: rgb(128, 128, 128);&quot;&gt;not null&lt;/span&gt;" style="shape=partialRectangle;top=0;left=0;bottom=0;html=1;fillColor=none;align=left;verticalAlign=middle;spacingLeft=4;spacingRight=4;whiteSpace=wrap;overflow=hidden;rotatable=0;points=[];portConstraint=eastwest;part=1;strokeColor=#909090;fontColor=#1A1A1A;rounded=1;" parent="YrgYbaN7kOxB59Jyv08Y-332" vertex="1" connectable="0">
          <mxGeometry x="250" width="50" height="31" as="geometry">
            <mxRectangle width="50" height="31" as="alternateBounds" />
          </mxGeometry>
        </mxCell>
        <mxCell id="YrgYbaN7kOxB59Jyv08Y-234" value="User_id" style="shape=partialRectangle;top=0;left=0;right=0;bottom=0;html=1;align=left;verticalAlign=top;fillColor=none;spacingLeft=34;spacingRight=4;whiteSpace=wrap;overflow=hidden;rotatable=0;points=[[0,0.5],[1,0.5]];portConstraint=eastwest;dropTarget=0;strokeColor=#909090;fontColor=#1A1A1A;rounded=1;" parent="YrgYbaN7kOxB59Jyv08Y-221" vertex="1">
          <mxGeometry y="115" width="300" height="27" as="geometry" />
        </mxCell>
        <mxCell id="YrgYbaN7kOxB59Jyv08Y-235" value="" style="shape=partialRectangle;top=0;left=0;bottom=0;html=1;fillColor=none;align=left;verticalAlign=top;spacingLeft=4;spacingRight=4;whiteSpace=wrap;overflow=hidden;rotatable=0;points=[];portConstraint=eastwest;part=1;strokeColor=#909090;fontColor=#1A1A1A;rounded=1;" parent="YrgYbaN7kOxB59Jyv08Y-234" vertex="1" connectable="0">
          <mxGeometry width="160" height="27" as="geometry">
            <mxRectangle width="160" height="27" as="alternateBounds" />
          </mxGeometry>
        </mxCell>
        <mxCell id="YrgYbaN7kOxB59Jyv08Y-236" value="&lt;span style=&quot;&quot;&gt;int&lt;/span&gt;" style="shape=partialRectangle;top=0;left=0;bottom=0;html=1;fillColor=none;align=left;verticalAlign=top;spacingLeft=4;spacingRight=4;whiteSpace=wrap;overflow=hidden;rotatable=0;points=[];portConstraint=eastwest;part=1;strokeColor=#909090;fontColor=#1A1A1A;rounded=1;" parent="YrgYbaN7kOxB59Jyv08Y-234" vertex="1" connectable="0">
          <mxGeometry x="160" width="90" height="27" as="geometry">
            <mxRectangle width="90" height="27" as="alternateBounds" />
          </mxGeometry>
        </mxCell>
        <mxCell id="YrgYbaN7kOxB59Jyv08Y-237" value="&lt;span style=&quot;color: rgb(128, 128, 128);&quot;&gt;null&lt;/span&gt;" style="shape=partialRectangle;top=0;left=0;bottom=0;html=1;fillColor=none;align=left;verticalAlign=top;spacingLeft=4;spacingRight=4;whiteSpace=wrap;overflow=hidden;rotatable=0;points=[];portConstraint=eastwest;part=1;strokeColor=#909090;fontColor=#1A1A1A;rounded=1;" parent="YrgYbaN7kOxB59Jyv08Y-234" vertex="1" connectable="0">
          <mxGeometry x="250" width="50" height="27" as="geometry">
            <mxRectangle width="50" height="27" as="alternateBounds" />
          </mxGeometry>
        </mxCell>
        <mxCell id="YrgYbaN7kOxB59Jyv08Y-238" value="Creation_date" style="shape=partialRectangle;top=0;left=0;right=0;bottom=0;html=1;align=left;verticalAlign=top;fillColor=none;spacingLeft=34;spacingRight=4;whiteSpace=wrap;overflow=hidden;rotatable=0;points=[[0,0.5],[1,0.5]];portConstraint=eastwest;dropTarget=0;strokeColor=#909090;fontColor=#1A1A1A;rounded=1;" parent="YrgYbaN7kOxB59Jyv08Y-221" vertex="1">
          <mxGeometry y="142" width="300" height="26" as="geometry" />
        </mxCell>
        <mxCell id="YrgYbaN7kOxB59Jyv08Y-239" value="" style="shape=partialRectangle;top=0;left=0;bottom=0;html=1;fillColor=none;align=left;verticalAlign=top;spacingLeft=4;spacingRight=4;whiteSpace=wrap;overflow=hidden;rotatable=0;points=[];portConstraint=eastwest;part=1;strokeColor=#909090;fontColor=#1A1A1A;rounded=1;" parent="YrgYbaN7kOxB59Jyv08Y-238" vertex="1" connectable="0">
          <mxGeometry width="160" height="26" as="geometry">
            <mxRectangle width="160" height="26" as="alternateBounds" />
          </mxGeometry>
        </mxCell>
        <mxCell id="YrgYbaN7kOxB59Jyv08Y-240" value="&lt;span style=&quot;&quot;&gt;datetime2(7)&lt;/span&gt;" style="shape=partialRectangle;top=0;left=0;bottom=0;html=1;fillColor=none;align=left;verticalAlign=top;spacingLeft=4;spacingRight=4;whiteSpace=wrap;overflow=hidden;rotatable=0;points=[];portConstraint=eastwest;part=1;strokeColor=#909090;fontColor=#1A1A1A;rounded=1;" parent="YrgYbaN7kOxB59Jyv08Y-238" vertex="1" connectable="0">
          <mxGeometry x="160" width="90" height="26" as="geometry">
            <mxRectangle width="90" height="26" as="alternateBounds" />
          </mxGeometry>
        </mxCell>
        <mxCell id="YrgYbaN7kOxB59Jyv08Y-241" value="&lt;span style=&quot;color: rgb(128, 128, 128);&quot;&gt;null&lt;/span&gt;" style="shape=partialRectangle;top=0;left=0;bottom=0;html=1;fillColor=none;align=left;verticalAlign=top;spacingLeft=4;spacingRight=4;whiteSpace=wrap;overflow=hidden;rotatable=0;points=[];portConstraint=eastwest;part=1;strokeColor=#909090;fontColor=#1A1A1A;rounded=1;" parent="YrgYbaN7kOxB59Jyv08Y-238" vertex="1" connectable="0">
          <mxGeometry x="250" width="50" height="26" as="geometry">
            <mxRectangle width="50" height="26" as="alternateBounds" />
          </mxGeometry>
        </mxCell>
        <mxCell id="YrgYbaN7kOxB59Jyv08Y-242" value="AssignedBy_Id" style="shape=partialRectangle;top=0;left=0;right=0;bottom=0;html=1;align=left;verticalAlign=top;fillColor=none;spacingLeft=34;spacingRight=4;whiteSpace=wrap;overflow=hidden;rotatable=0;points=[[0,0.5],[1,0.5]];portConstraint=eastwest;dropTarget=0;strokeColor=#909090;fontColor=#1A1A1A;rounded=1;" parent="YrgYbaN7kOxB59Jyv08Y-221" vertex="1">
          <mxGeometry y="168" width="300" height="27" as="geometry" />
        </mxCell>
        <mxCell id="YrgYbaN7kOxB59Jyv08Y-243" value="" style="shape=partialRectangle;top=0;left=0;bottom=0;html=1;fillColor=none;align=left;verticalAlign=top;spacingLeft=4;spacingRight=4;whiteSpace=wrap;overflow=hidden;rotatable=0;points=[];portConstraint=eastwest;part=1;strokeColor=#909090;fontColor=#1A1A1A;rounded=1;" parent="YrgYbaN7kOxB59Jyv08Y-242" vertex="1" connectable="0">
          <mxGeometry width="160" height="27" as="geometry">
            <mxRectangle width="160" height="27" as="alternateBounds" />
          </mxGeometry>
        </mxCell>
        <mxCell id="YrgYbaN7kOxB59Jyv08Y-244" value="&lt;span style=&quot;&quot;&gt;int&lt;/span&gt;" style="shape=partialRectangle;top=0;left=0;bottom=0;html=1;fillColor=none;align=left;verticalAlign=top;spacingLeft=4;spacingRight=4;whiteSpace=wrap;overflow=hidden;rotatable=0;points=[];portConstraint=eastwest;part=1;strokeColor=#909090;fontColor=#1A1A1A;rounded=1;" parent="YrgYbaN7kOxB59Jyv08Y-242" vertex="1" connectable="0">
          <mxGeometry x="160" width="90" height="27" as="geometry">
            <mxRectangle width="90" height="27" as="alternateBounds" />
          </mxGeometry>
        </mxCell>
        <mxCell id="YrgYbaN7kOxB59Jyv08Y-245" value="&lt;span style=&quot;color: rgb(128, 128, 128);&quot;&gt;null&lt;/span&gt;" style="shape=partialRectangle;top=0;left=0;bottom=0;html=1;fillColor=none;align=left;verticalAlign=top;spacingLeft=4;spacingRight=4;whiteSpace=wrap;overflow=hidden;rotatable=0;points=[];portConstraint=eastwest;part=1;strokeColor=#909090;fontColor=#1A1A1A;rounded=1;" parent="YrgYbaN7kOxB59Jyv08Y-242" vertex="1" connectable="0">
          <mxGeometry x="250" width="50" height="27" as="geometry">
            <mxRectangle width="50" height="27" as="alternateBounds" />
          </mxGeometry>
        </mxCell>
        <mxCell id="YrgYbaN7kOxB59Jyv08Y-246" value="" style="shape=partialRectangle;top=0;left=0;right=0;bottom=0;html=1;align=left;verticalAlign=top;fillColor=none;spacingLeft=34;spacingRight=4;whiteSpace=wrap;overflow=hidden;rotatable=0;points=[[0,0.5],[1,0.5]];portConstraint=eastwest;dropTarget=0;strokeColor=#909090;fontColor=#1A1A1A;rounded=1;" parent="YrgYbaN7kOxB59Jyv08Y-221" vertex="1">
          <mxGeometry y="195" width="300" height="10" as="geometry" />
        </mxCell>
        <mxCell id="YrgYbaN7kOxB59Jyv08Y-247" value="" style="shape=partialRectangle;top=0;left=0;bottom=0;html=1;fillColor=none;align=left;verticalAlign=top;spacingLeft=4;spacingRight=4;whiteSpace=wrap;overflow=hidden;rotatable=0;points=[];portConstraint=eastwest;part=1;strokeColor=#909090;fontColor=#1A1A1A;rounded=1;" parent="YrgYbaN7kOxB59Jyv08Y-246" vertex="1" connectable="0">
          <mxGeometry width="160" height="10" as="geometry">
            <mxRectangle width="160" height="10" as="alternateBounds" />
          </mxGeometry>
        </mxCell>
        <mxCell id="YrgYbaN7kOxB59Jyv08Y-248" style="shape=partialRectangle;top=0;left=0;bottom=0;html=1;fillColor=none;align=left;verticalAlign=top;spacingLeft=4;spacingRight=4;whiteSpace=wrap;overflow=hidden;rotatable=0;points=[];portConstraint=eastwest;part=1;strokeColor=#909090;fontColor=#1A1A1A;rounded=1;" parent="YrgYbaN7kOxB59Jyv08Y-246" vertex="1" connectable="0">
          <mxGeometry x="160" width="90" height="10" as="geometry">
            <mxRectangle width="90" height="10" as="alternateBounds" />
          </mxGeometry>
        </mxCell>
        <mxCell id="YrgYbaN7kOxB59Jyv08Y-249" style="shape=partialRectangle;top=0;left=0;bottom=0;html=1;fillColor=none;align=left;verticalAlign=top;spacingLeft=4;spacingRight=4;whiteSpace=wrap;overflow=hidden;rotatable=0;points=[];portConstraint=eastwest;part=1;strokeColor=#909090;fontColor=#1A1A1A;rounded=1;" parent="YrgYbaN7kOxB59Jyv08Y-246" vertex="1" connectable="0">
          <mxGeometry x="250" width="50" height="10" as="geometry">
            <mxRectangle width="50" height="10" as="alternateBounds" />
          </mxGeometry>
        </mxCell>
      </root>
    </mxGraphModel>
  </diagram>
</mxfile>
